<svg width="196" height="110" viewBox="0 0 196 110" fill="none" xmlns="http://www.w3.org/2000/svg">
<g clip-path="url(#clip0)">
<path d="M123.121 57.4098C122.872 56.7417 122.271 56.255 121.546 56.1691C60.1581 48.1329 38.7602 7.09324 38.5503 6.6733C38.4196 6.41304 38.2324 6.18528 38.0024 6.00664C37.7724 5.82801 37.5054 5.70302 37.2209 5.64081C36.9365 5.57861 36.6417 5.58076 36.3581 5.64711C36.0745 5.71346 35.8094 5.84233 35.582 6.0243L2.15858 32.5474C1.43323 33.12 1.21371 34.1222 1.61456 34.943C28.5289 89.8884 82.6441 103.775 83.1881 103.918C83.5406 104.004 83.91 103.991 84.2554 103.88C84.6008 103.769 84.9086 103.564 85.1446 103.288L122.777 59.3855C123.254 58.8414 123.378 58.0875 123.121 57.4098ZM52.332 86.987C51.3394 86.987 50.1559 86.5098 49.7169 85.6031C49.2778 84.706 49.4687 83.6275 50.0891 82.864C50.5377 82.3104 51.158 81.9859 51.8166 81.8618C55.7869 81.1174 57.2758 86.987 52.332 86.987ZM59.6714 81.2319C58.6788 81.2319 57.4953 80.7547 57.0563 79.8576C56.6077 78.9604 56.8082 77.8819 57.4285 77.1184C57.8771 76.5649 58.4975 76.2404 59.156 76.1163C63.1454 75.3623 64.6152 81.2319 59.6714 81.2319ZM66.4 75.0569C65.3979 75.0569 64.2144 74.5797 63.7754 73.673C63.3363 72.7758 63.5368 71.6974 64.1571 70.9338C64.6152 70.3803 65.2261 70.0558 65.8846 69.9317C69.8645 69.1777 71.3438 75.0569 66.4 75.0569ZM72.7182 68.5383C71.7256 68.5383 70.5517 68.0611 70.1031 67.1544C69.6545 66.2572 69.8549 65.1787 70.4753 64.4152C70.9239 63.8616 71.5347 63.5371 72.1933 63.4131C76.1827 62.6686 77.662 68.5383 72.7182 68.5383ZM79.485 61.3993C78.5019 61.5711 77.2516 61.3038 76.6599 60.483C76.0777 59.6718 76.0873 58.5742 76.5645 57.7152C76.9176 57.0949 77.4712 56.6749 78.1011 56.4363C81.8996 55.0238 84.3525 60.5594 79.485 61.3993ZM85.2878 54.7566C84.3047 54.9093 83.064 54.6134 82.4818 53.7926C81.9092 52.9718 81.9378 51.8742 82.4341 51.0248C82.7968 50.4044 83.3503 49.994 83.9898 49.7745C87.8074 48.4193 90.1744 54.0026 85.2878 54.7566Z" fill="#9CE8FF"/>
<path d="M46.653 54.6135C46.1663 55.0239 46.214 55.6728 46.758 56.0642C46.758 56.0642 48.5332 57.5435 51.5301 59.5859C54.5555 61.6475 57.4092 63.06 57.4092 63.06C58.0105 63.4227 58.9077 63.3845 59.3944 62.9646L61.7804 60.9698C62.2863 60.5499 62.2004 59.9104 61.6086 59.5478C61.6086 59.5478 58.1823 57.6389 55.634 55.9783C52.5894 53.9835 50.8906 52.6378 50.8906 52.6378C50.3275 52.2465 49.4781 52.2561 48.9818 52.6665L46.653 54.6135Z" fill="#2F2F2F"/>
<path d="M40.211 60.4354C39.7338 60.8362 39.7434 61.5234 40.2397 61.9529C40.2397 61.9529 42.912 64.3962 44.9258 66.0092C46.9492 67.6412 49.8506 69.9604 49.8506 69.9604C50.385 70.3899 51.2249 70.3994 51.7117 69.9986L54.6226 67.5553C55.1094 67.1449 55.0521 66.4959 54.489 66.1141C54.489 66.1141 51.4158 64.0908 49.2016 62.5256C46.9778 60.9508 44.1623 58.6697 44.1623 58.6697C43.6374 58.2593 42.8261 58.2593 42.3394 58.6602L40.211 60.4354Z" fill="#2F2F2F"/>
<path d="M35.2099 30.3809C34.7422 30.7532 34.6849 31.4308 35.0858 31.8985L35.9352 32.8529C36.3552 33.311 37.0805 33.3778 37.5577 33.0056L39.2661 31.6599C39.7433 31.2781 39.791 30.61 39.3616 30.1614L38.474 29.2261C38.054 28.7775 37.3287 28.7107 36.8419 29.0925L35.2099 30.3809Z" fill="#2F2F2F"/>
<path d="M43.5035 39.0661C43.0167 39.4479 42.9977 40.1064 43.4653 40.5359L45.2978 42.2156C45.775 42.6451 46.5576 42.6833 47.0539 42.3111L49.0295 40.784C49.5163 40.4023 49.5258 39.7533 49.0391 39.3333L47.1303 37.6726C46.653 37.2432 45.8704 37.2145 45.3837 37.5867L43.5035 39.0661Z" fill="#2F2F2F"/>
<path d="M54.422 45.0407C54.9184 44.6589 54.8993 44.029 54.3744 43.6377L52.561 42.2347C52.0457 41.8339 51.2248 41.8148 50.7285 42.1965L48.7148 43.7427C48.228 44.1245 48.228 44.7639 48.7243 45.1839L50.4804 46.6059C50.9863 47.0163 51.807 47.0354 52.3032 46.6537L54.422 45.0407Z" fill="#2F2F2F"/>
<path d="M60.3681 49.1065C60.8739 48.7247 60.8262 48.1139 60.2631 47.7512L58.1825 46.3673C57.6385 45.9951 56.7795 46.0046 56.2832 46.3864L54.1167 48.028C53.6204 48.4002 53.6491 49.0301 54.174 49.4214L56.1687 50.834C56.7127 51.2157 57.5812 51.2157 58.0775 50.834L60.3681 49.1065Z" fill="#2F2F2F"/>
<path d="M35.4674 27.5559C35.9447 27.1837 36.0115 26.4965 35.6106 26.0288L34.1217 24.2918C33.74 23.8241 33.0528 23.7573 32.5851 24.1391L31.1249 25.3321C30.6668 25.7139 30.5809 26.4106 30.9531 26.8878L32.337 28.6248C32.7187 29.102 33.4155 29.1784 33.8927 28.8062L35.4674 27.5559Z" fill="#2F2F2F"/>
<path d="M64.386 50.2614C63.8038 49.9273 62.9066 49.975 62.3912 50.3568L60.0434 52.132C59.5376 52.5138 59.5948 53.1151 60.1579 53.4682L64.5196 56.026C65.1113 56.36 65.9989 56.3028 66.4857 55.8924L68.9385 53.8595C69.4348 53.4491 69.3298 52.8574 68.719 52.5519L64.386 50.2614Z" fill="#2F2F2F"/>
<path d="M43.8186 36.1551C44.2958 35.7829 44.3244 35.1148 43.8758 34.6758L42.406 33.2537C41.967 32.8147 41.2035 32.7669 40.7263 33.1392L38.9702 34.5135C38.4834 34.8857 38.4548 35.5634 38.8747 36.0119L40.2873 37.4531C40.7358 37.9017 41.4898 37.9589 41.9766 37.5772L43.8186 36.1551Z" fill="#2F2F2F"/>
<path d="M43.1793 52.8382C43.3416 52.8478 43.4847 52.8287 43.6279 52.7619C44.3342 52.4374 45.9853 50.9008 46.1953 50.7385C46.9874 50.1182 46.8443 49.6314 46.2716 49.2019C45.8517 48.887 45.4699 48.5434 45.0691 48.2093C44.2864 47.5603 40.5642 45.1266 35.2672 39.3619C30.6765 34.3704 27.7083 29.961 27.5079 29.6937C27.3647 29.4838 27.2311 29.2452 27.0116 29.102C26.6012 28.8348 26.1335 29.4265 25.8567 29.6556L24.8451 30.4955L24.2152 31.0108C23.8334 31.3353 23.9193 31.7553 24.1674 32.137C24.406 32.4997 24.6542 32.8624 24.8928 33.2251C25.4463 34.0459 26.0095 34.8667 26.5916 35.6684C27.317 36.6705 28.071 37.6535 28.8441 38.6366C29.7507 39.7819 30.6956 40.9176 31.6691 42.0247C34.0234 44.7093 36.5212 47.2645 39.1517 49.6791C39.8961 50.3663 40.6597 51.0439 41.4327 51.7025C41.7859 52.0079 42.1676 52.4183 42.5685 52.6569C42.7594 52.7428 42.9693 52.8191 43.1793 52.8382Z" fill="#2F2F2F"/>
<path d="M40.1728 55.6155C40.1728 55.2815 39.7815 55.0047 39.5524 54.7947C39.247 54.5275 38.9416 54.2507 38.6457 53.9739C38.0635 53.4299 37.4718 52.8859 36.8992 52.3419C35.4866 50.9962 34.1218 49.6218 32.7952 48.2284C31.6022 46.9686 30.4473 45.6801 29.3211 44.3821C28.3381 43.2464 27.3741 42.0724 26.4484 40.8985C25.6657 39.8964 24.9022 38.8847 24.1578 37.8539C23.566 37.0331 22.9743 36.1933 22.4112 35.3534C22.1917 35.0193 21.9626 34.6757 21.7431 34.3322C21.6477 34.1795 21.5522 34.0363 21.4568 33.8836C21.3423 33.7022 21.1609 33.4255 20.9319 33.4159C20.5883 33.4064 20.4356 33.6545 20.1874 33.8645C19.7961 34.1795 19.4143 34.4944 19.023 34.8189C18.8322 34.9716 18.6413 35.1339 18.4504 35.2961C17.7728 35.8497 18.1832 36.2982 18.5745 36.9186C18.794 37.2622 19.0135 37.6058 19.2235 37.9398C19.7579 38.7702 20.3019 39.5814 20.8651 40.3927C21.5522 41.3853 22.268 42.3683 22.9934 43.3513C23.8619 44.4966 24.74 45.6228 25.6467 46.7491C26.6774 48.028 27.7559 49.2973 28.8535 50.5476C30.0847 51.941 31.354 53.3249 32.652 54.6802C33.2915 55.3578 33.95 56.0164 34.6086 56.6845C34.8949 56.9708 35.1717 57.2571 35.458 57.5434C36.2406 58.3356 36.8514 58.5742 37.7486 57.8966C38.2163 57.553 38.6553 57.1808 39.1039 56.8086C39.4474 56.4936 40.1823 56.1214 40.1728 55.6155Z" fill="#2F2F2F"/>
<path d="M157.773 58.8959C157.505 58.1749 156.856 57.6496 156.073 57.5569C89.8226 48.8842 66.7297 4.59358 66.5031 4.14037C66.3621 3.8595 66.1601 3.61369 65.9119 3.42091C65.6636 3.22812 65.3755 3.09323 65.0685 3.0261C64.7614 2.95897 64.4433 2.96129 64.1373 3.03289C63.8312 3.1045 63.5451 3.24358 63.2997 3.43996L27.2286 32.0641C26.4458 32.6821 26.2089 33.7636 26.6415 34.6494C55.6879 93.9473 114.09 108.934 114.677 109.088C115.057 109.181 115.456 109.167 115.829 109.047C116.202 108.927 116.534 108.706 116.788 108.408L157.402 61.0281C157.917 60.441 158.051 59.6273 157.773 58.8959ZM81.3765 90.8161C80.3053 90.8161 79.028 90.3011 78.5542 89.3226C78.0804 88.3544 78.2864 87.1904 78.9559 86.3664C79.4401 85.769 80.1096 85.4188 80.8203 85.2849C85.1051 84.4815 86.712 90.8161 81.3765 90.8161ZM89.2973 84.6051C88.2261 84.6051 86.9489 84.0901 86.4751 83.1219C85.9909 82.1537 86.2073 80.9898 86.8768 80.1657C87.3609 79.5683 88.0304 79.2181 88.7411 79.0842C93.0465 78.2705 94.6328 84.6051 89.2973 84.6051ZM96.5589 77.9409C95.4774 77.9409 94.2002 77.4259 93.7264 76.4474C93.2525 75.4792 93.4689 74.3153 94.1384 73.4912C94.6328 72.8938 95.292 72.5436 96.0027 72.4097C100.298 71.596 101.894 77.9409 96.5589 77.9409ZM103.378 70.9059C102.306 70.9059 101.04 70.3909 100.555 69.4124C100.071 68.4442 100.287 67.2803 100.957 66.4562C101.441 65.8588 102.1 65.5086 102.811 65.3747C107.117 64.5713 108.713 70.9059 103.378 70.9059ZM110.68 63.2014C109.62 63.3868 108.27 63.0984 107.632 62.2126C107.003 61.3371 107.014 60.1526 107.529 59.2255C107.91 58.556 108.507 58.1028 109.187 57.8453C113.286 56.3209 115.934 62.295 110.68 63.2014ZM116.943 56.0325C115.882 56.1973 114.543 55.878 113.915 54.9922C113.297 54.1064 113.328 52.9219 113.863 52.0051C114.255 51.3356 114.852 50.8927 115.542 50.6558C119.662 49.1932 122.217 55.2188 116.943 56.0325Z" fill="#40C0E7"/>
<path d="M75.248 55.878C74.7227 56.3209 74.7742 57.0213 75.3613 57.4436C75.3613 57.4436 77.2771 59.0401 80.5114 61.2443C83.7765 63.4692 86.8563 64.9936 86.8563 64.9936C87.5052 65.385 88.4734 65.3438 88.9987 64.8906L91.5737 62.7379C92.1196 62.2847 92.0269 61.5946 91.3883 61.2031C91.3883 61.2031 87.6906 59.1431 84.9404 57.3509C81.6547 55.1982 79.8213 53.7458 79.8213 53.7458C79.2136 53.3235 78.2968 53.3338 77.7612 53.7767L75.248 55.878Z" fill="#2F2F2F"/>
<path d="M68.2954 62.161C67.7804 62.5936 67.7907 63.3352 68.3263 63.7987C68.3263 63.7987 71.2104 66.4356 73.3837 68.1763C75.5673 69.9376 78.6986 72.4406 78.6986 72.4406C79.2754 72.9041 80.1818 72.9144 80.7071 72.4818L83.8487 69.8449C84.374 69.402 84.3122 68.7016 83.7045 68.2896C83.7045 68.2896 80.3878 66.106 77.9982 64.4167C75.5982 62.7172 72.5597 60.2555 72.5597 60.2555C71.9932 59.8126 71.1177 59.8126 70.5924 60.2452L68.2954 62.161Z" fill="#2F2F2F"/>
<path d="M62.8983 29.7258C62.3936 30.1275 62.3318 30.8588 62.7644 31.3635L63.6811 32.3935C64.1343 32.8879 64.9172 32.96 65.4322 32.5583L67.2759 31.106C67.7909 30.694 67.8424 29.973 67.3789 29.4889L66.421 28.4795C65.9678 27.9954 65.185 27.9233 64.6597 28.3353L62.8983 29.7258Z" fill="#2F2F2F"/>
<path d="M71.8492 39.0991C71.3238 39.5111 71.3032 40.2218 71.8079 40.6853L73.7856 42.4981C74.3006 42.9616 75.1452 43.0028 75.6808 42.6011L77.8129 40.9531C78.3382 40.5411 78.3485 39.8407 77.8232 39.3875L75.7632 37.5952C75.2482 37.1317 74.4036 37.1008 73.8783 37.5025L71.8492 39.0991Z" fill="#2F2F2F"/>
<path d="M83.6325 45.547C84.1681 45.135 84.1475 44.4552 83.581 44.0329L81.624 42.5188C81.0678 42.0862 80.182 42.0656 79.6464 42.4776L77.473 44.1462C76.9477 44.5582 76.9477 45.2483 77.4833 45.7015L79.3786 47.2363C79.9245 47.6792 80.8103 47.6998 81.3459 47.2878L83.6325 45.547Z" fill="#2F2F2F"/>
<path d="M90.0494 49.9348C90.5954 49.5228 90.5439 48.8636 89.9361 48.4722L87.6907 46.9787C87.1036 46.577 86.1766 46.5873 85.641 46.9993L83.3029 48.7709C82.7672 49.1726 82.7981 49.8524 83.3647 50.2747L85.5174 51.7991C86.1045 52.2111 87.0418 52.2111 87.5774 51.7991L90.0494 49.9348Z" fill="#2F2F2F"/>
<path d="M63.1763 26.6771C63.6913 26.2754 63.7634 25.5338 63.3308 25.0291L61.724 23.1544C61.312 22.6497 60.5704 22.5776 60.0657 22.9896L58.4898 24.2772C57.9954 24.6892 57.9027 25.4411 58.3044 25.9561L59.7979 27.8307C60.2099 28.3457 60.9618 28.4281 61.4768 28.0264L63.1763 26.6771Z" fill="#2F2F2F"/>
<path d="M94.3859 51.1812C93.7576 50.8206 92.7894 50.8721 92.2332 51.2842L89.6993 53.2C89.1534 53.612 89.2152 54.2609 89.8229 54.642L94.5301 57.4024C95.1687 57.7629 96.1266 57.7011 96.6519 57.2582L99.2991 55.0643C99.8347 54.6214 99.7214 53.9828 99.0622 53.6532L94.3859 51.1812Z" fill="#2F2F2F"/>
<path d="M72.1889 35.9575C72.7039 35.5558 72.7349 34.8348 72.2507 34.361L70.6645 32.8263C70.1907 32.3525 69.3667 32.301 68.8517 32.7027L66.9565 34.1859C66.4312 34.5876 66.4003 35.3189 66.8535 35.803L68.3779 37.3583C68.862 37.8424 69.6757 37.9042 70.201 37.4922L72.1889 35.9575Z" fill="#2F2F2F"/>
<path d="M71.499 53.9621C71.6741 53.9724 71.8286 53.9518 71.9831 53.8797C72.7453 53.5295 74.5272 51.8712 74.7538 51.6961C75.6087 51.0266 75.4542 50.5013 74.8362 50.0378C74.383 49.6979 73.971 49.3271 73.5384 48.9666C72.6938 48.2662 68.6767 45.6396 62.9602 39.4183C58.0058 34.0314 54.8024 29.2727 54.5861 28.9843C54.4316 28.7577 54.2874 28.5002 54.0505 28.3457C53.6076 28.0573 53.1029 28.6959 52.8042 28.9431L51.7124 29.8495L51.0326 30.4057C50.6206 30.7559 50.7133 31.2091 50.9811 31.6211C51.2386 32.0125 51.5064 32.4039 51.7639 32.7953C52.3613 33.6812 52.969 34.567 53.5973 35.4322C54.3801 36.5137 55.1938 37.5746 56.0282 38.6355C57.0067 39.8715 58.0264 41.0973 59.077 42.2921C61.6178 45.1893 64.3135 47.9469 67.1523 50.5528C67.9557 51.2944 68.7797 52.0257 69.6141 52.7364C69.9952 53.066 70.4072 53.5089 70.8398 53.7664C71.0458 53.8591 71.2724 53.9415 71.499 53.9621Z" fill="#2F2F2F"/>
<path d="M68.2542 56.9595C68.2542 56.599 67.8319 56.3003 67.5847 56.0737C67.2551 55.7853 66.9255 55.4866 66.6062 55.1879C65.9779 54.6008 65.3392 54.0137 64.7212 53.4266C63.1968 51.9743 61.7239 50.491 60.2922 48.9872C59.0047 47.6276 57.7583 46.2371 56.5429 44.8363C55.482 43.6105 54.4417 42.3436 53.4426 41.0767C52.598 39.9952 51.774 38.9034 50.9705 37.791C50.3319 36.9051 49.6933 35.9987 49.0856 35.0923C48.8487 34.7318 48.6015 34.361 48.3646 33.9902C48.2616 33.8254 48.1586 33.6709 48.0556 33.5061C47.932 33.3104 47.7363 33.0117 47.4891 33.0014C47.1183 32.9911 46.9535 33.2589 46.6857 33.4855C46.2634 33.8254 45.8514 34.1653 45.4291 34.5155C45.2231 34.6803 45.0171 34.8554 44.8111 35.0305C44.0798 35.6279 44.5227 36.112 44.945 36.7815C45.1819 37.1524 45.4188 37.5232 45.6454 37.8837C46.2222 38.7798 46.8093 39.6553 47.417 40.5308C48.1586 41.602 48.9311 42.6629 49.7139 43.7238C50.6512 44.9599 51.5989 46.1753 52.5774 47.3907C53.6898 48.7709 54.8537 50.1408 56.0382 51.4902C57.3669 52.994 58.7369 54.4875 60.1377 55.9501C60.8278 56.6814 61.5385 57.3921 62.2492 58.1131C62.5582 58.4221 62.8569 58.7312 63.1659 59.0402C64.0105 59.8951 64.6697 60.1526 65.638 59.4213C66.1427 59.0505 66.6165 58.6488 67.1006 58.2471C67.4714 57.9071 68.2645 57.5054 68.2542 56.9595Z" fill="#2F2F2F"/>
<path d="M195.241 57.0677C194.973 56.3467 194.324 55.8214 193.541 55.7287C127.291 47.056 104.198 2.76533 103.971 2.31212C103.83 2.03125 103.628 1.78545 103.38 1.59266C103.132 1.39988 102.843 1.26499 102.536 1.19786C102.229 1.13072 101.911 1.13305 101.605 1.20465C101.299 1.27625 101.013 1.41533 100.768 1.61172L64.6967 30.2358C63.9139 30.8538 63.6769 31.9353 64.1096 32.8212C93.156 92.1191 151.558 107.105 152.145 107.26C152.525 107.353 152.924 107.339 153.297 107.219C153.669 107.099 154.002 106.878 154.256 106.58L194.87 59.1998C195.385 58.6127 195.519 57.799 195.241 57.0677ZM118.844 88.9878C117.773 88.9878 116.496 88.4728 116.022 87.4943C115.548 86.5261 115.754 85.3622 116.424 84.5382C116.908 83.9408 117.577 83.5906 118.288 83.4567C122.573 82.6533 124.18 88.9878 118.844 88.9878ZM126.765 82.7769C125.694 82.7769 124.417 82.2618 123.943 81.2936C123.459 80.3254 123.675 79.1615 124.345 78.3375C124.829 77.7401 125.498 77.3899 126.209 77.256C130.514 76.4423 132.101 82.7769 126.765 82.7769ZM134.027 76.1127C132.945 76.1127 131.668 75.5977 131.194 74.6191C130.72 73.6509 130.937 72.487 131.606 71.663C132.101 71.0656 132.76 70.7154 133.471 70.5815C137.766 69.7678 139.362 76.1127 134.027 76.1127ZM140.846 69.0777C139.774 69.0777 138.507 68.5627 138.023 67.5841C137.539 66.6159 137.755 65.452 138.425 64.628C138.909 64.0306 139.568 63.6804 140.279 63.5465C144.584 62.7431 146.181 69.0777 140.846 69.0777ZM148.148 61.3732C147.087 61.5586 145.738 61.2702 145.099 60.3843C144.471 59.5088 144.481 58.3243 144.996 57.3973C145.378 56.7278 145.975 56.2746 146.655 56.0171C150.754 54.4927 153.401 60.4667 148.148 61.3732ZM154.411 54.2043C153.35 54.3691 152.011 54.0498 151.383 53.1639C150.765 52.2781 150.795 51.0936 151.331 50.1769C151.722 49.5074 152.32 49.0645 153.01 48.8276C157.13 47.365 159.684 53.3905 154.411 54.2043Z" fill="#339FDC"/>
<path d="M112.716 54.0497C112.191 54.4926 112.242 55.193 112.829 55.6153C112.829 55.6153 114.745 57.2119 117.979 59.4161C121.244 61.6409 124.324 63.1654 124.324 63.1654C124.973 63.5568 125.941 63.5156 126.467 63.0624L129.042 60.9096C129.588 60.4564 129.495 59.7663 128.856 59.3749C128.856 59.3749 125.159 57.3149 122.408 55.5226C119.123 53.3699 117.289 51.9176 117.289 51.9176C116.682 51.4953 115.765 51.5056 115.229 51.9485L112.716 54.0497Z" fill="#2F2F2F"/>
<path d="M105.763 60.3328C105.248 60.7654 105.259 61.507 105.794 61.9705C105.794 61.9705 108.678 64.6073 110.852 66.3481C113.035 68.1094 116.167 70.6123 116.167 70.6123C116.743 71.0758 117.65 71.0861 118.175 70.6535L121.317 68.0167C121.842 67.5738 121.78 66.8734 121.172 66.4614C121.172 66.4614 117.856 64.2777 115.466 62.5885C113.066 60.889 110.028 58.4272 110.028 58.4272C109.461 57.9843 108.586 57.9843 108.06 58.4169L105.763 60.3328Z" fill="#2F2F2F"/>
<path d="M100.366 27.8976C99.8614 28.2993 99.7996 29.0306 100.232 29.5354L101.149 30.5654C101.602 31.0598 102.385 31.1319 102.9 30.7302L104.744 29.2779C105.259 28.8658 105.31 28.1448 104.847 27.6607L103.889 26.6513C103.436 26.1672 102.653 26.0951 102.128 26.5071L100.366 27.8976Z" fill="#2F2F2F"/>
<path d="M109.317 37.2708C108.792 37.6828 108.771 38.3935 109.276 38.857L111.253 40.6699C111.768 41.1334 112.613 41.1746 113.149 40.7729L115.281 39.1248C115.806 38.7128 115.816 38.0124 115.291 37.5592L113.231 35.767C112.716 35.3035 111.871 35.2726 111.346 35.6743L109.317 37.2708Z" fill="#2F2F2F"/>
<path d="M121.1 43.7187C121.636 43.3067 121.615 42.6269 121.049 42.2045L119.092 40.6904C118.536 40.2578 117.65 40.2372 117.114 40.6492L114.941 42.3178C114.416 42.7299 114.416 43.42 114.951 43.8732L116.846 45.4079C117.392 45.8508 118.278 45.8714 118.814 45.4594L121.1 43.7187Z" fill="#2F2F2F"/>
<path d="M127.517 48.1066C128.063 47.6946 128.012 47.0354 127.404 46.6439L125.158 45.1504C124.571 44.7487 123.644 44.759 123.109 45.171L120.771 46.9427C120.235 47.3444 120.266 48.0242 120.832 48.4465L122.985 49.9709C123.572 50.3829 124.51 50.3829 125.045 49.9709L127.517 48.1066Z" fill="#2F2F2F"/>
<path d="M100.644 24.8488C101.159 24.4471 101.231 23.7055 100.799 23.2008L99.1917 21.3262C98.7797 20.8215 98.0381 20.7494 97.5334 21.1614L95.9575 22.4489C95.4631 22.8609 95.3704 23.6128 95.7721 24.1278L97.2656 26.0025C97.6776 26.5175 98.4295 26.5999 98.9445 26.1982L100.644 24.8488Z" fill="#2F2F2F"/>
<path d="M131.854 49.3529C131.225 48.9924 130.257 49.0439 129.701 49.4559L127.167 51.3717C126.621 51.7837 126.683 52.4327 127.291 52.8138L131.998 55.5742C132.636 55.9347 133.594 55.8729 134.12 55.43L136.767 53.2361C137.302 52.7932 137.189 52.1545 136.53 51.8249L131.854 49.3529Z" fill="#2F2F2F"/>
<path d="M109.657 34.1293C110.172 33.7276 110.203 33.0065 109.718 32.5327L108.132 30.998C107.658 30.5242 106.834 30.4727 106.319 30.8744L104.424 32.3576C103.899 32.7593 103.868 33.4907 104.321 33.9748L105.846 35.5301C106.33 36.0142 107.143 36.076 107.669 35.664L109.657 34.1293Z" fill="#2F2F2F"/>
<path d="M108.967 52.1339C109.142 52.1442 109.296 52.1236 109.451 52.0515C110.213 51.7013 111.995 50.043 112.222 49.8679C113.077 49.1983 112.922 48.673 112.304 48.2095C111.851 47.8696 111.439 47.4988 111.006 47.1383C110.162 46.4379 106.145 43.8114 100.428 37.5901C95.4736 32.2031 92.2703 27.4444 92.054 27.156C91.8995 26.9294 91.7553 26.6719 91.5184 26.5174C91.0755 26.229 90.5707 26.8676 90.272 27.1148L89.1802 28.0212L88.5004 28.5775C88.0884 28.9277 88.1811 29.3809 88.4489 29.7929C88.7064 30.1843 88.9742 30.5757 89.2317 30.9671C89.8291 31.8529 90.4368 32.7387 91.0652 33.6039C91.848 34.6854 92.6617 35.7464 93.496 36.8073C94.4745 38.0433 95.4942 39.269 96.5448 40.4638C99.0856 43.3611 101.781 46.1187 104.62 48.7245C105.424 49.4661 106.248 50.1975 107.082 50.9082C107.463 51.2378 107.875 51.6807 108.308 51.9382C108.514 52.0309 108.74 52.1133 108.967 52.1339Z" fill="#2F2F2F"/>
<path d="M105.722 55.1313C105.722 54.7708 105.3 54.4721 105.053 54.2455C104.723 53.9571 104.393 53.6584 104.074 53.3597C103.446 52.7726 102.807 52.1854 102.189 51.5983C100.665 50.146 99.192 48.6628 97.7603 47.159C96.4727 45.7993 95.2264 44.4088 94.011 43.008C92.9501 41.7823 91.9098 40.5154 90.9107 39.2485C90.0661 38.1669 89.242 37.0751 88.4386 35.9627C87.8 35.0769 87.1614 34.1705 86.5537 33.2641C86.3168 32.9036 86.0696 32.5328 85.8327 32.162C85.7297 31.9972 85.6267 31.8427 85.5237 31.6779C85.4001 31.4822 85.2044 31.1834 84.9572 31.1731C84.5864 31.1628 84.4216 31.4306 84.1538 31.6573C83.7315 31.9972 83.3195 32.3371 82.8972 32.6873C82.6912 32.8521 82.4852 33.0272 82.2792 33.2023C81.5478 33.7997 81.9907 34.2838 82.4131 34.9533C82.65 35.3241 82.8869 35.6949 83.1135 36.0554C83.6903 36.9515 84.2774 37.827 84.8851 38.7026C85.6267 39.7738 86.3992 40.8347 87.182 41.8956C88.1193 43.1316 89.0669 44.347 90.0455 45.5624C91.1579 46.9427 92.3218 48.3126 93.5063 49.6619C94.835 51.1657 96.2049 52.6592 97.6058 54.1219C98.2959 54.8532 99.0066 55.5639 99.7173 56.2849C100.026 56.5939 100.325 56.9029 100.634 57.2119C101.479 58.0668 102.138 58.3243 103.106 57.593C103.611 57.2222 104.084 56.8205 104.569 56.4188C104.939 56.0789 105.732 55.6772 105.722 55.1313Z" fill="#2F2F2F"/>
</g>
<defs>
<clipPath id="clip0">
<rect width="195" height="109" fill="white" transform="translate(0.958008 0.748291)"/>
</clipPath>
</defs>
</svg>
