<svg width="149" height="149" viewBox="0 0 149 149" fill="none" xmlns="http://www.w3.org/2000/svg">
<g clip-path="url(#clip0)">
<path d="M107.681 119.06H41.6812C38.6447 119.06 36.0523 117.986 33.9038 115.838C31.7554 113.689 30.6812 111.097 30.6812 108.06V64.0605C30.6812 61.024 31.7554 58.4315 33.9038 56.2831C36.0523 54.1347 38.6447 53.0605 41.6812 53.0605H52.6812V44.8105C52.6812 40.9146 54.1421 37.649 57.064 35.0136C59.9859 32.3782 63.1083 31.0605 66.4312 31.0605H82.9312C86.2541 31.0605 89.3765 32.3782 92.2984 35.0136C95.2202 37.649 96.6812 40.9146 96.6812 44.8105V53.0605H107.681C110.718 53.0605 113.31 54.1347 115.458 56.2831C117.607 58.4315 118.681 61.024 118.681 64.0605V108.06C118.681 111.097 117.607 113.689 115.458 115.838C113.31 117.986 110.718 119.06 107.681 119.06ZM55.4312 69.5605C53.1395 69.5605 51.1916 70.3625 49.5874 71.9667C47.9833 73.5709 47.1812 75.5188 47.1812 77.8105C47.1812 80.1021 47.9833 82.05 49.5874 83.6542C51.1916 85.2584 53.1395 86.0605 55.4312 86.0605C57.7229 86.0605 59.6708 85.2584 61.2749 83.6542C62.8791 82.05 63.6812 80.1021 63.6812 77.8105C63.6812 75.5188 62.8791 73.5709 61.2749 71.9667C59.6708 70.3625 57.7229 69.5605 55.4312 69.5605ZM85.6812 47.5605C85.6812 46.0136 85.1512 44.7102 84.0913 43.6503C83.0314 42.5904 81.7281 42.0605 80.1812 42.0605H69.1812C67.6916 42.0605 66.4025 42.5904 65.314 43.6503C64.2255 44.7102 63.6812 46.0136 63.6812 47.5605V53.0605H85.6812V47.5605ZM102.181 86.0605L80.1812 91.5605L85.6812 108.06L107.681 102.56L102.181 86.0605Z" fill="#70A3D2"/>
<path d="M75.1812 145.561C114.393 145.561 146.181 113.773 146.181 74.5605C146.181 35.3483 114.393 3.56055 75.1812 3.56055C35.9689 3.56055 4.18115 35.3483 4.18115 74.5605C4.18115 113.773 35.9689 145.561 75.1812 145.561Z" stroke="#52718E" stroke-width="5"/>
</g>
<defs>
<clipPath id="clip0">
<rect width="148" height="148" fill="white" transform="translate(0.958008 0.748291)"/>
</clipPath>
</defs>
</svg>
