<svg width="149" height="149" viewBox="0 0 149 149" fill="none" xmlns="http://www.w3.org/2000/svg">
<mask id="mask0" mask-type="alpha" maskUnits="userSpaceOnUse" x="1" y="1" width="148" height="148">
<path fill-rule="evenodd" clip-rule="evenodd" d="M75.1812 148.06C115.774 148.06 148.681 115.153 148.681 74.5606C148.681 33.9676 115.774 1.06055 75.1812 1.06055C34.5883 1.06055 1.68115 33.9676 1.68115 74.5606C1.68115 80.9465 2.49556 87.1423 4.02618 93.0496L15.676 93.5621L78.6329 47.5746C80.0678 46.4928 81.7175 45.734 83.4699 45.3496C85.2224 44.9652 87.0366 44.9642 88.7894 45.3467L109.632 49.8689C110.662 50.0809 111.602 50.6059 112.325 51.373C113.048 52.14 113.52 53.112 113.675 54.1572C113.83 55.2024 113.662 56.2703 113.193 57.2162C112.724 58.1622 111.978 58.9404 111.054 59.4455C102.155 64.4998 89.5172 71.649 76.284 79.031L68.4434 123.223C68.3405 123.807 68.036 124.337 67.5832 124.719L59.3125 131.635C59.0581 131.849 58.7507 131.988 58.4233 132.039C58.0959 132.09 57.7609 132.05 57.4545 131.923C57.1481 131.796 56.8819 131.588 56.6846 131.321C56.4873 131.053 56.3664 130.736 56.335 130.405L52.6297 92.1322C34.1363 102.34 18.488 110.687 14.2865 112.316C13.9932 112.421 13.678 112.449 13.371 112.396C13.064 112.344 12.7755 112.213 12.5331 112.017L11.4011 111.114C24.0814 133.191 47.8949 148.06 75.1812 148.06ZM16.0391 67.8294L35.1206 73.3356L56.0937 58.1106L25.9947 58.973C25.7 58.9891 25.4144 59.0804 25.1651 59.2383L15.6409 64.7114C15.3447 64.8755 15.1045 65.1246 14.9514 65.4266C14.7983 65.7286 14.7394 66.0695 14.7823 66.4053C14.8252 66.7412 14.9679 67.0564 15.192 67.3103C15.416 67.5641 15.7111 67.745 16.0391 67.8294Z" fill="white"/>
</mask>
<g mask="url(#mask0)">
<path fill-rule="evenodd" clip-rule="evenodd" d="M75.1812 148.06C115.774 148.06 148.681 115.153 148.681 74.5606C148.681 33.9676 115.774 1.06055 75.1812 1.06055C34.5883 1.06055 1.68115 33.9676 1.68115 74.5606C1.68115 80.9465 2.49556 87.1423 4.02618 93.0496L15.676 93.5621L78.6329 47.5746C80.0678 46.4928 81.7175 45.734 83.4699 45.3496C85.2224 44.9652 87.0366 44.9642 88.7894 45.3467L109.632 49.8689C110.662 50.0809 111.602 50.6059 112.325 51.373C113.048 52.14 113.52 53.112 113.675 54.1572C113.83 55.2024 113.662 56.2703 113.193 57.2162C112.724 58.1622 111.978 58.9404 111.054 59.4455C102.155 64.4998 89.5172 71.649 76.284 79.031L68.4434 123.223C68.3405 123.807 68.036 124.337 67.5832 124.719L59.3125 131.635C59.0581 131.849 58.7507 131.988 58.4233 132.039C58.0959 132.09 57.7609 132.05 57.4545 131.923C57.1481 131.796 56.8819 131.588 56.6846 131.321C56.4873 131.053 56.3664 130.736 56.335 130.405L52.6297 92.1322C34.1363 102.34 18.488 110.687 14.2865 112.316C13.9932 112.421 13.678 112.449 13.371 112.396C13.064 112.344 12.7755 112.213 12.5331 112.017L11.4011 111.114C24.0814 133.191 47.8949 148.06 75.1812 148.06ZM16.0391 67.8294L35.1206 73.3356L56.0937 58.1106L25.9947 58.973C25.7 58.9891 25.4144 59.0804 25.1651 59.2383L15.6409 64.7114C15.3447 64.8755 15.1045 65.1246 14.9514 65.4266C14.7983 65.7286 14.7394 66.0695 14.7823 66.4053C14.8252 66.7412 14.9679 67.0564 15.192 67.3103C15.416 67.5641 15.7111 67.745 16.0391 67.8294Z" fill="#C4C4C4"/>
<path d="M4.02618 93.0496L-0.813978 94.3037L0.113254 97.8823L3.80646 98.0448L4.02618 93.0496ZM15.676 93.5621L15.4563 98.5572L17.2088 98.6343L18.6253 97.5996L15.676 93.5621ZM78.6329 47.5746L81.5822 51.6121L81.6127 51.5899L81.6428 51.5671L78.6329 47.5746ZM83.4699 45.3496L84.5412 50.2335L83.4699 45.3496ZM88.7894 45.3467L87.7235 50.2317L87.7292 50.233L88.7894 45.3467ZM109.632 49.8689L108.571 54.7553L108.598 54.7609L108.624 54.7664L109.632 49.8689ZM112.325 51.373L108.687 54.8031L112.325 51.373ZM113.675 54.1572L108.729 54.8919L113.675 54.1572ZM111.054 59.4455L108.655 55.0588L108.62 55.078L108.585 55.0978L111.054 59.4455ZM76.284 79.031L73.8482 74.6644L71.7755 75.8206L71.3609 78.1575L76.284 79.031ZM68.4434 123.223L63.5202 122.349L63.5189 122.357L68.4434 123.223ZM67.5832 124.719L70.7907 128.555L70.7984 128.548L70.806 128.542L67.5832 124.719ZM59.3125 131.635L56.1049 127.8L56.0983 127.805L59.3125 131.635ZM57.4545 131.923L59.3641 127.302H59.3639L57.4545 131.923ZM56.6846 131.321L60.7086 128.353H60.7085L56.6846 131.321ZM56.335 130.405L61.3126 129.933L61.3117 129.923L56.335 130.405ZM52.6297 92.1322L57.6064 91.6504L56.8734 84.0785L50.2134 87.7549L52.6297 92.1322ZM14.2865 112.316L15.9729 117.023L16.0339 117.001L16.0943 116.978L14.2865 112.316ZM13.371 112.396L12.5297 117.325L13.371 112.396ZM12.5331 112.017L15.6822 108.133L15.6662 108.12L15.6502 108.107L12.5331 112.017ZM11.4011 111.114L14.5181 107.205L7.06532 113.604L11.4011 111.114ZM35.1206 73.3356L33.7344 78.1396L36.0812 78.8168L38.0579 77.3818L35.1206 73.3356ZM16.0391 67.8294L17.4254 63.0254L17.3556 63.0052L17.2853 62.9871L16.0391 67.8294ZM56.0937 58.1106L59.031 62.1568L72.1283 52.6491L55.9505 53.1126L56.0937 58.1106ZM25.9947 58.973L25.8515 53.975L25.7868 53.9769L25.7222 53.9804L25.9947 58.973ZM25.1651 59.2383L27.6563 63.5735L27.7497 63.5199L27.8406 63.4622L25.1651 59.2383ZM15.6409 64.7114L18.0632 69.0855L18.0978 69.0663L18.1321 69.0466L15.6409 64.7114ZM14.9514 65.4266L10.4916 63.166L10.4915 63.1661L14.9514 65.4266ZM14.7823 66.4053L19.742 65.7719L14.7823 66.4053ZM143.681 74.5606C143.681 112.392 113.013 143.06 75.1812 143.06V153.06C118.535 153.06 153.681 117.915 153.681 74.5606H143.681ZM75.1812 6.06055C113.013 6.06055 143.681 36.729 143.681 74.5606H153.681C153.681 31.2062 118.535 -3.93945 75.1812 -3.93945V6.06055ZM6.68115 74.5606C6.68115 36.729 37.3497 6.06055 75.1812 6.06055V-3.93945C31.8268 -3.93945 -3.31885 31.2062 -3.31885 74.5606H6.68115ZM8.86635 91.7955C7.44095 86.2943 6.68115 80.5198 6.68115 74.5606H-3.31885C-3.31885 81.3732 -2.44983 87.9903 -0.813978 94.3037L8.86635 91.7955ZM3.80646 98.0448L15.4563 98.5572L15.8957 88.5669L4.24591 88.0545L3.80646 98.0448ZM18.6253 97.5996L81.5822 51.6121L75.6837 43.537L12.7267 89.5245L18.6253 97.5996ZM81.6428 51.5671C82.5041 50.9178 83.4928 50.4635 84.5412 50.2335L82.3986 40.4657C79.9422 41.0045 77.6315 42.0678 75.6231 43.582L81.6428 51.5671ZM84.5412 50.2335C85.5897 50.0035 86.6748 50.0029 87.7235 50.2317L89.8553 40.4616C87.3983 39.9255 84.855 39.9269 82.3986 40.4657L84.5412 50.2335ZM87.7292 50.233L108.571 54.7553L110.692 44.9826L89.8496 40.4604L87.7292 50.233ZM108.624 54.7664C108.645 54.7706 108.667 54.7819 108.687 54.8031L115.963 47.9429C114.537 46.43 112.679 45.3912 110.639 44.9715L108.624 54.7664ZM108.687 54.8031C108.708 54.8246 108.724 54.8552 108.729 54.8919L118.621 53.4225C118.316 51.3688 117.389 49.4554 115.963 47.9429L108.687 54.8031ZM108.729 54.8919C108.735 54.9287 108.728 54.9654 108.713 54.9961L117.673 59.4364C118.596 57.5753 118.926 55.4762 118.621 53.4225L108.729 54.8919ZM108.713 54.9961C108.698 55.0265 108.676 55.047 108.655 55.0588L113.453 63.8323C115.279 62.8338 116.751 61.2979 117.673 59.4364L108.713 54.9961ZM108.585 55.0978C99.6917 60.1487 87.0661 67.291 73.8482 74.6644L78.7199 83.3975C91.9684 76.007 104.618 68.851 113.523 63.7933L108.585 55.0978ZM71.3609 78.1575L63.5202 122.349L73.3665 124.096L81.2071 79.9044L71.3609 78.1575ZM63.5189 122.357C63.6185 121.79 63.9141 121.272 64.3604 120.896L70.806 128.542C72.1578 127.402 73.0625 125.825 73.3678 124.089L63.5189 122.357ZM64.3757 120.883L56.1049 127.8L62.52 135.471L70.7907 128.555L64.3757 120.883ZM56.0983 127.805C56.5423 127.433 57.0815 127.187 57.6586 127.098L59.188 136.98C60.4199 136.789 61.574 136.265 62.5266 135.465L56.0983 127.805ZM57.6586 127.098C58.2355 127.008 58.8255 127.079 59.3641 127.302L55.5449 136.544C56.6963 137.02 57.9563 137.171 59.188 136.98L57.6586 127.098ZM59.3639 127.302C59.9021 127.524 60.3664 127.889 60.7086 128.353L52.6606 134.288C53.3974 135.287 54.394 136.068 55.5451 136.544L59.3639 127.302ZM60.7085 128.353C61.0507 128.817 61.2586 129.363 61.3126 129.933L51.3573 130.877C51.4743 132.11 51.924 133.289 52.6607 134.288L60.7085 128.353ZM61.3117 129.923L57.6064 91.6504L47.653 92.614L51.3583 130.887L61.3117 129.923ZM50.2134 87.7549C40.9802 92.8516 32.474 97.4742 25.7626 101.02C18.9179 104.637 14.247 106.968 12.4787 107.654L16.0943 116.978C18.5275 116.034 23.7816 113.377 30.4347 109.862C37.2211 106.276 45.7859 101.621 55.046 96.5096L50.2134 87.7549ZM12.6001 107.609C13.1159 107.424 13.6713 107.375 14.2122 107.468L12.5297 117.325C13.6847 117.522 14.8705 117.418 15.9729 117.023L12.6001 107.609ZM14.2122 107.468C14.7531 107.56 15.259 107.79 15.6822 108.133L9.38399 115.9C10.2919 116.637 11.3749 117.128 12.5297 117.325L14.2122 107.468ZM15.6502 108.107L14.5181 107.205L8.28399 115.024L9.41603 115.926L15.6502 108.107ZM75.1812 143.06C49.7575 143.06 27.562 129.212 15.7368 108.624L7.06532 113.604C20.6008 137.171 46.0323 153.06 75.1812 153.06V143.06ZM36.5069 68.5316L17.4254 63.0254L14.6529 72.6334L33.7344 78.1396L36.5069 68.5316ZM53.1564 54.0643L32.1833 69.2893L38.0579 77.3818L59.031 62.1568L53.1564 54.0643ZM26.1379 63.9709L56.2369 63.1085L55.9505 53.1126L25.8515 53.975L26.1379 63.9709ZM27.8406 63.4622C27.3677 63.7618 26.826 63.9351 26.2672 63.9656L25.7222 53.9804C24.5741 54.0431 23.461 54.3991 22.4895 55.0144L27.8406 63.4622ZM18.1321 69.0466L27.6563 63.5735L22.6739 54.9032L13.1497 60.3762L18.1321 69.0466ZM19.4112 67.6872C19.1117 68.2779 18.6421 68.7649 18.0632 69.0855L13.2186 60.3373C12.0472 60.986 11.0972 61.9713 10.4916 63.166L19.4112 67.6872ZM19.742 65.7719C19.826 66.4291 19.7106 67.0963 19.4112 67.6871L10.4915 63.1661C9.88595 64.3608 9.65284 65.7099 9.82256 67.0388L19.742 65.7719ZM18.9407 64.0016C19.3788 64.498 19.6581 65.1147 19.742 65.7719L9.82256 67.0388C9.99228 68.3676 10.557 69.6147 11.4432 70.6189L18.9407 64.0016ZM17.2853 62.9871C17.9259 63.152 18.5026 63.5052 18.9407 64.0016L11.4432 70.6189C12.3295 71.623 13.4964 72.3379 14.793 72.6716L17.2853 62.9871Z" fill="#52718E"/>
</g>
</svg>
