<svg width="452" height="253" viewBox="0 0 452 253" fill="none" xmlns="http://www.w3.org/2000/svg">
<g clip-path="url(#clip0)">
<path d="M127.717 85.797H120.604C119.757 85.797 119.07 85.1104 119.07 84.2642V82.4331C119.07 82.0239 118.786 81.6633 118.397 81.5731C115.628 80.935 113.019 79.8599 110.625 78.3757C110.257 78.1468 109.799 78.1953 109.508 78.4936L108.217 79.7837C107.634 80.3593 106.628 80.3593 106.045 79.7837L101.013 74.7552C100.417 74.1587 100.417 73.1877 101.013 72.5842L102.304 71.2942C102.596 71.0029 102.644 70.5382 102.415 70.1775C100.923 67.7846 99.8476 65.1698 99.2092 62.4094C99.1189 62.021 98.7581 61.7366 98.3486 61.7366H96.5166C95.6699 61.7366 94.9829 61.0499 94.9829 60.2038V53.0876C94.9829 52.2414 95.6699 51.5548 96.5166 51.5548H98.3417C98.7511 51.5548 99.112 51.2704 99.2022 50.882C99.8337 48.1146 100.916 45.4998 102.408 43.1139C102.637 42.7532 102.589 42.2885 102.297 41.9972L101.013 40.714C100.417 40.1176 100.417 39.1465 101.013 38.5431L106.045 33.5146C106.642 32.9182 107.613 32.9182 108.217 33.5146L109.501 34.7978C109.792 35.0891 110.257 35.1376 110.618 34.9087C113.012 33.4175 115.628 32.3425 118.397 31.7044C118.786 31.6142 119.07 31.2536 119.07 30.8443V29.0202C119.07 28.174 119.757 27.4874 120.604 27.4874H127.717C128.564 27.4874 129.251 28.174 129.251 29.0202V30.8443C129.251 31.2536 129.535 31.6142 129.924 31.7044C132.693 32.3425 135.309 33.4175 137.696 34.9087C138.057 35.1376 138.522 35.0891 138.814 34.7978L140.098 33.5146C140.694 32.9182 141.666 32.9182 142.27 33.5146L147.301 38.5431C147.898 39.1396 147.898 40.1106 147.301 40.714L146.01 42.0041C145.719 42.2954 145.67 42.7532 145.899 43.1208C147.391 45.5137 148.467 48.1285 149.105 50.8889C149.195 51.2773 149.556 51.5617 149.966 51.5617H151.798C152.644 51.5617 153.331 52.2484 153.331 53.0945V60.2038C153.331 61.0499 152.644 61.7366 151.798 61.7366H149.966C149.556 61.7366 149.195 62.021 149.105 62.4094C148.467 65.1768 147.391 67.7846 145.899 70.1775C145.67 70.5382 145.719 71.0029 146.01 71.2942L147.301 72.5842C147.898 73.1807 147.898 74.1517 147.301 74.7552L142.27 79.7837C141.673 80.3801 140.701 80.3801 140.098 79.7837L138.807 78.4936C138.515 78.2023 138.057 78.1537 137.69 78.3826C135.295 79.8738 132.686 80.9489 129.917 81.58C129.528 81.6702 129.244 82.0309 129.244 82.4401V84.2711C129.251 85.1034 128.557 85.797 127.717 85.797ZM110.125 77.6752C110.396 77.6752 110.667 77.7515 110.909 77.904C113.248 79.3606 115.809 80.4148 118.515 81.0321C119.161 81.1778 119.612 81.7534 119.612 82.4262V84.2573C119.612 84.7983 120.056 85.2422 120.597 85.2422H127.71C128.252 85.2422 128.696 84.7983 128.696 84.2573V82.4262C128.696 81.7534 129.147 81.1778 129.792 81.0321C132.499 80.4148 135.059 79.3606 137.398 77.904C137.981 77.5434 138.717 77.6197 139.188 78.0982L140.479 79.3883C140.861 79.7698 141.492 79.7698 141.874 79.3883L146.905 74.3598C147.287 73.9784 147.287 73.3472 146.905 72.9657L145.615 71.6757C145.143 71.1971 145.059 70.4619 145.42 69.8793C146.878 67.5419 147.932 64.9826 148.557 62.2776C148.703 61.6325 149.279 61.1817 149.952 61.1817H151.784C152.325 61.1817 152.769 60.7378 152.769 60.1968V53.0876C152.769 52.5466 152.325 52.1027 151.784 52.1027H149.952C149.286 52.1027 148.703 51.638 148.557 51.0068C147.939 48.3019 146.885 45.7425 145.42 43.4052C145.059 42.8225 145.136 42.0873 145.615 41.6088L146.905 40.3187C147.287 39.9372 147.287 39.3061 146.905 38.9246L141.874 33.8961C141.492 33.5146 140.868 33.5077 140.479 33.8961L139.195 35.1792C138.724 35.6509 137.981 35.7341 137.398 35.3734C135.059 33.9169 132.499 32.8627 129.792 32.2384C129.154 32.0928 128.696 31.5032 128.696 30.8443V29.0202C128.696 28.4792 128.252 28.0353 127.71 28.0353H120.597C120.056 28.0353 119.612 28.4792 119.612 29.0202V30.8443C119.612 31.5171 119.161 32.0928 118.515 32.2384C115.809 32.8627 113.248 33.9169 110.909 35.3734C110.326 35.7341 109.591 35.6578 109.112 35.1792L107.828 33.8961C107.447 33.5146 106.815 33.5146 106.433 33.8961L101.402 38.9246C101.02 39.3061 101.02 39.9372 101.402 40.3187L102.686 41.6018C103.158 42.0804 103.241 42.8156 102.88 43.3982C101.423 45.7356 100.368 48.2949 99.7435 50.9999C99.5978 51.638 99.0079 52.0958 98.3486 52.0958H96.5235C95.9822 52.0958 95.5381 52.5397 95.5381 53.0807V60.1899C95.5381 60.7309 95.9822 61.1748 96.5235 61.1748H98.3556C99.0218 61.1748 99.6047 61.6395 99.7505 62.2707C100.375 64.9756 101.43 67.535 102.887 69.8723C103.248 70.4549 103.172 71.1901 102.693 71.6687L101.402 72.9588C101.02 73.3403 101.02 73.9714 101.402 74.3529L106.433 79.3814C106.808 79.7559 107.453 79.7559 107.828 79.3814L109.119 78.0913C109.39 77.8139 109.757 77.6752 110.125 77.6752ZM124.157 76.9608C112.957 76.9608 103.838 67.8401 103.838 56.6387C103.838 45.4443 112.95 36.3306 124.157 36.3306C135.358 36.3306 144.476 45.4374 144.476 56.6387C144.476 67.8401 135.358 76.9608 124.157 76.9608ZM124.157 36.8716C113.255 36.8716 104.386 45.7356 104.386 56.6318C104.386 67.535 113.255 76.4059 124.157 76.4059C135.059 76.4059 143.928 67.535 143.928 56.6318C143.928 45.7356 135.059 36.8716 124.157 36.8716Z" fill="#5295E7"/>
<path d="M185.767 84.2573V79.4091C185.767 78.9375 185.386 78.5491 184.907 78.5491H183.658C183.29 78.5491 182.971 78.2994 182.887 77.9457C182.457 76.0661 181.722 74.2974 180.729 72.7091C180.528 72.3901 180.57 71.9808 180.833 71.7173L181.708 70.8434C182.041 70.5104 182.041 69.9625 181.708 69.6296L178.279 66.2033C177.946 65.8704 177.398 65.8704 177.065 66.2033L176.191 67.0772C175.927 67.3408 175.517 67.3824 175.198 67.1812C173.609 66.1894 171.839 65.4542 169.959 65.0173C169.605 64.934 169.355 64.615 169.355 64.2474V63.0059C169.355 62.5342 168.973 62.1458 168.495 62.1458H163.644C163.172 62.1458 162.783 62.5273 162.783 63.0059V64.2474C162.783 64.615 162.533 64.934 162.179 65.0173C160.299 65.4473 158.529 66.1825 156.94 67.1743C156.621 67.3754 156.211 67.3338 155.948 67.0703L155.073 66.1963C154.74 65.8634 154.192 65.8634 153.859 66.1963L150.431 69.6227C150.098 69.9556 150.098 70.5035 150.431 70.8364L151.305 71.7103C151.569 71.9739 151.61 72.3831 151.409 72.7022C150.417 74.2905 149.681 76.0591 149.251 77.9387C149.168 78.2925 148.848 78.5421 148.481 78.5421H147.231C146.76 78.5421 146.371 78.9236 146.371 79.4022V84.2503C146.371 84.722 146.753 85.1104 147.231 85.1104H148.481C148.848 85.1104 149.168 85.3601 149.251 85.7138C149.681 87.5934 150.417 89.3621 151.409 90.9504C151.61 91.2694 151.569 91.6786 151.305 91.9422L150.431 92.8161C150.098 93.149 150.098 93.697 150.431 94.0299L153.859 97.4562C154.192 97.7891 154.74 97.7891 155.073 97.4562L155.955 96.5753C156.218 96.3118 156.628 96.2702 156.947 96.4713C158.536 97.4631 160.306 98.1983 162.186 98.6283C162.54 98.7116 162.79 99.0306 162.79 99.3982V100.647C162.79 101.118 163.172 101.507 163.651 101.507H168.501C168.973 101.507 169.362 101.125 169.362 100.647V99.3982C169.362 99.0306 169.612 98.7116 169.966 98.6283C171.846 98.1983 173.616 97.4631 175.205 96.4713C175.524 96.2702 175.934 96.3118 176.198 96.5753L177.079 97.4562C177.412 97.7891 177.96 97.7891 178.293 97.4562L181.722 94.0299C182.055 93.697 182.055 93.149 181.722 92.8161L180.84 91.9353C180.576 91.6717 180.535 91.2625 180.736 90.9434C181.728 89.3551 182.464 87.5865 182.894 85.7069C182.978 85.3531 183.297 85.1035 183.665 85.1035H184.914C185.386 85.1173 185.767 84.7359 185.767 84.2573ZM166.073 94.7235C158.953 94.7235 153.186 88.9459 153.186 81.8297C153.186 74.7205 158.953 68.9499 166.073 68.9499C173.193 68.9499 178.96 74.7274 178.96 81.8297C178.966 88.9528 173.2 94.7235 166.073 94.7235Z" fill="#5295E7"/>
<path d="M94.4902 212.543C95.7895 212.543 96.8428 211.49 96.8428 210.191C96.8428 208.893 95.7895 207.84 94.4902 207.84C93.191 207.84 92.1377 208.893 92.1377 210.191C92.1377 211.49 93.191 212.543 94.4902 212.543Z" fill="#5295E7"/>
<path d="M409.293 148.365C410.593 148.365 411.646 147.313 411.646 146.014C411.646 144.715 410.593 143.663 409.293 143.663C407.994 143.663 406.941 144.715 406.941 146.014C406.941 147.313 407.994 148.365 409.293 148.365Z" fill="#5295E7"/>
<path d="M404.595 64.504C405.895 64.504 406.948 63.4513 406.948 62.1527C406.948 60.8542 405.895 59.8015 404.595 59.8015C403.296 59.8015 402.243 60.8542 402.243 62.1527C402.243 63.4513 403.296 64.504 404.595 64.504Z" fill="#5295E7"/>
<path d="M320.105 35.1237C320.918 35.1237 321.576 34.4654 321.576 33.6533C321.576 32.8413 320.918 32.183 320.105 32.183C319.293 32.183 318.634 32.8413 318.634 33.6533C318.634 34.4654 319.293 35.1237 320.105 35.1237Z" fill="#5295E7"/>
<path d="M103.685 14.0319C103.685 14.8433 103.026 15.5023 102.214 15.5023C101.402 15.5023 100.743 14.8433 100.743 14.0319C100.743 13.2204 101.402 12.5615 102.214 12.5615C103.026 12.5545 103.685 13.2134 103.685 14.0319Z" fill="#5295E7"/>
<path d="M136.309 104.746C136.309 105.557 135.649 106.216 134.837 106.216C134.025 106.216 133.366 105.557 133.366 104.746C133.366 103.934 134.025 103.275 134.837 103.275C135.649 103.275 136.309 103.934 136.309 104.746Z" fill="#5295E7"/>
<path d="M82.2349 212.536C82.2349 213.347 81.5756 214.006 80.7637 214.006C79.9517 214.006 79.2925 213.347 79.2925 212.536C79.2925 211.724 79.9517 211.065 80.7637 211.065C81.5756 211.065 82.2349 211.724 82.2349 212.536Z" fill="#5295E7"/>
<path d="M374.824 213.93C376.123 213.93 377.177 212.877 377.177 211.579C377.177 210.28 376.123 209.227 374.824 209.227C373.525 209.227 372.472 210.28 372.472 211.579C372.472 212.877 373.525 213.93 374.824 213.93Z" fill="#5295E7"/>
<path d="M424.79 213.93C426.089 213.93 427.142 212.877 427.142 211.579C427.142 210.28 426.089 209.227 424.79 209.227C423.49 209.227 422.437 210.28 422.437 211.579C422.437 212.877 423.49 213.93 424.79 213.93Z" fill="#5295E7"/>
<path d="M144.199 9.97438C145.498 9.97438 146.551 8.92169 146.551 7.62313C146.551 6.32457 145.498 5.27188 144.199 5.27188C142.9 5.27188 141.846 6.32457 141.846 7.62313C141.846 8.92169 142.9 9.97438 144.199 9.97438Z" fill="#5295E7"/>
<path d="M306.33 114.477C306.33 116.211 304.921 117.619 303.186 117.619C301.451 117.619 300.042 116.211 300.042 114.477C300.042 112.743 301.451 111.335 303.186 111.335C304.921 111.335 306.33 112.743 306.33 114.477Z" fill="#5295E7"/>
<path d="M74.4277 75.6221C74.4277 77.3561 73.019 78.7641 71.284 78.7641C69.5491 78.7641 68.1404 77.3561 68.1404 75.6221C68.1404 73.8882 69.5491 72.4802 71.284 72.4802C73.019 72.4802 74.4277 73.8812 74.4277 75.6221Z" fill="#5295E7"/>
<path d="M65.5796 28.715H61.624C61.3673 28.715 61.166 28.507 61.166 28.2573V24.3038C61.166 24.0472 61.3742 23.8461 61.624 23.8461H65.5796C65.8364 23.8461 66.0377 24.0541 66.0377 24.3038V28.2573C66.0446 28.507 65.8364 28.715 65.5796 28.715Z" fill="#5295E7"/>
<path d="M72.1028 28.715H68.1472C67.8905 28.715 67.6892 28.507 67.6892 28.2573V24.3038C67.6892 24.0472 67.8974 23.8461 68.1472 23.8461H72.1028C72.3596 23.8461 72.5608 24.0541 72.5608 24.3038V28.2573C72.5608 28.507 72.3596 28.715 72.1028 28.715Z" fill="#5295E7"/>
<path d="M78.6263 28.715H74.6707C74.4139 28.715 74.2126 28.507 74.2126 28.2573V24.3038C74.2126 24.0472 74.4208 23.8461 74.6707 23.8461H78.6263C78.883 23.8461 79.0843 24.0541 79.0843 24.3038V28.2573C79.0843 28.507 78.8761 28.715 78.6263 28.715Z" fill="#5295E7"/>
<path d="M397.697 199.843H393.742C393.485 199.843 393.284 199.635 393.284 199.385V195.432C393.284 195.175 393.492 194.974 393.742 194.974H397.697C397.954 194.974 398.155 195.182 398.155 195.432V199.385C398.162 199.635 397.954 199.843 397.697 199.843Z" fill="#5295E7"/>
<path d="M404.221 199.843H400.265C400.008 199.843 399.807 199.635 399.807 199.385V195.432C399.807 195.175 400.015 194.974 400.265 194.974H404.221C404.477 194.974 404.679 195.182 404.679 195.432V199.385C404.679 199.635 404.477 199.843 404.221 199.843Z" fill="#5295E7"/>
<path d="M410.744 199.843H406.788C406.532 199.843 406.33 199.635 406.33 199.385V195.432C406.33 195.175 406.538 194.974 406.788 194.974H410.744C411.001 194.974 411.202 195.182 411.202 195.432V199.385C411.202 199.635 410.994 199.843 410.744 199.843Z" fill="#5295E7"/>
<path d="M96.1974 197.173H92.2418C91.9851 197.173 91.7838 196.965 91.7838 196.715V192.762C91.7838 192.505 91.992 192.304 92.2418 192.304H96.1974C96.4542 192.304 96.6554 192.512 96.6554 192.762V196.715C96.6554 196.965 96.4473 197.173 96.1974 197.173Z" fill="#5295E7"/>
<path d="M102.714 197.173H98.7582C98.5014 197.173 98.3002 196.965 98.3002 196.715V192.762C98.3002 192.505 98.5084 192.304 98.7582 192.304H102.714C102.971 192.304 103.172 192.512 103.172 192.762V196.715C103.179 196.965 102.971 197.173 102.714 197.173Z" fill="#5295E7"/>
<path d="M109.237 197.173H105.281C105.025 197.173 104.823 196.965 104.823 196.715V192.762C104.823 192.505 105.032 192.304 105.281 192.304H109.237C109.494 192.304 109.695 192.512 109.695 192.762V196.715C109.702 196.965 109.494 197.173 109.237 197.173Z" fill="#5295E7"/>
<path d="M272.95 239.051H179.057C170.875 239.051 164.241 232.421 164.241 224.243V15.3635C164.241 7.18618 170.875 0.555511 179.057 0.555511H272.95C281.132 0.555511 287.766 7.18618 287.766 15.3635V224.243C287.766 232.428 281.132 239.051 272.95 239.051Z" fill="#03159D"/>
<path d="M272.471 235.667H179.529C172.36 235.667 166.552 229.861 166.552 222.697V15.6202C166.552 8.45545 172.36 2.65015 179.529 2.65015H272.471C279.64 2.65015 285.448 8.45545 285.448 15.6202V222.697C285.448 229.861 279.64 235.667 272.471 235.667Z" fill="#151A40"/>
<path d="M280.244 15.211V222.052C280.244 226.9 276.309 230.832 271.458 230.832H180.542C175.691 230.832 171.756 226.9 171.756 222.052V15.211C171.756 10.3628 175.691 6.43018 180.542 6.43018H195.705C196.545 6.43018 197.315 6.90181 197.69 7.65782L199.3 10.8691C200.035 12.3534 201.548 13.2828 203.193 13.2828H248.8C250.445 13.2828 251.965 12.3534 252.693 10.8691L254.303 7.65782C254.678 6.90875 255.448 6.43018 256.288 6.43018H271.451C276.309 6.43018 280.244 10.3628 280.244 15.211Z" fill="#5295E7"/>
<path d="M245.143 9.51663H208.411C207.558 9.51663 206.864 8.82305 206.864 7.96994C206.864 7.11683 207.558 6.42325 208.411 6.42325H245.143C245.997 6.42325 246.691 7.11683 246.691 7.96994C246.691 8.82999 245.997 9.51663 245.143 9.51663Z" fill="#5295E7"/>
<path d="M265.823 224.001C265.816 224.001 265.816 224.001 265.823 224.001H263.845C263.651 224.001 263.498 223.848 263.498 223.654C263.498 223.46 263.651 223.307 263.845 223.307H265.816H265.823C266.399 223.307 266.961 223.217 267.503 223.043C267.69 222.988 267.877 223.085 267.94 223.265C267.995 223.446 267.898 223.64 267.718 223.702C267.1 223.897 266.469 224.001 265.823 224.001ZM261.875 224.001H259.904C259.709 224.001 259.557 223.848 259.557 223.654C259.557 223.46 259.709 223.307 259.904 223.307H261.875C262.069 223.307 262.222 223.46 262.222 223.654C262.222 223.848 262.069 224.001 261.875 224.001ZM257.94 224.001H255.969C255.775 224.001 255.622 223.848 255.622 223.654C255.622 223.46 255.775 223.307 255.969 223.307H257.94C258.134 223.307 258.287 223.46 258.287 223.654C258.287 223.848 258.134 224.001 257.94 224.001ZM254.005 224.001H252.034C251.84 224.001 251.687 223.848 251.687 223.654C251.687 223.46 251.84 223.307 252.034 223.307H254.005C254.199 223.307 254.352 223.46 254.352 223.654C254.352 223.848 254.192 224.001 254.005 224.001ZM250.063 224.001H248.092C247.898 224.001 247.745 223.848 247.745 223.654C247.745 223.46 247.898 223.307 248.092 223.307H250.063C250.258 223.307 250.41 223.46 250.41 223.654C250.41 223.848 250.258 224.001 250.063 224.001ZM246.129 224.001H244.158C243.963 224.001 243.811 223.848 243.811 223.654C243.811 223.46 243.963 223.307 244.158 223.307H246.129C246.323 223.307 246.475 223.46 246.475 223.654C246.475 223.848 246.316 224.001 246.129 224.001ZM242.187 224.001H240.216C240.022 224.001 239.869 223.848 239.869 223.654C239.869 223.46 240.022 223.307 240.216 223.307H242.187C242.381 223.307 242.534 223.46 242.534 223.654C242.534 223.848 242.381 224.001 242.187 224.001ZM238.252 224.001H236.281C236.087 224.001 235.934 223.848 235.934 223.654C235.934 223.46 236.087 223.307 236.281 223.307H238.252C238.446 223.307 238.599 223.46 238.599 223.654C238.599 223.848 238.446 224.001 238.252 224.001ZM234.317 224.001H232.346C232.152 224.001 231.999 223.848 231.999 223.654C231.999 223.46 232.152 223.307 232.346 223.307H234.317C234.512 223.307 234.664 223.46 234.664 223.654C234.664 223.848 234.505 224.001 234.317 224.001ZM230.375 224.001H228.405C228.21 224.001 228.058 223.848 228.058 223.654C228.058 223.46 228.21 223.307 228.405 223.307H230.375C230.57 223.307 230.722 223.46 230.722 223.654C230.722 223.848 230.57 224.001 230.375 224.001ZM226.441 224.001H224.47C224.276 224.001 224.123 223.848 224.123 223.654C224.123 223.46 224.276 223.307 224.47 223.307H226.441C226.635 223.307 226.788 223.46 226.788 223.654C226.788 223.848 226.628 224.001 226.441 224.001ZM222.499 224.001H220.528C220.334 224.001 220.181 223.848 220.181 223.654C220.181 223.46 220.334 223.307 220.528 223.307H222.499C222.693 223.307 222.846 223.46 222.846 223.654C222.846 223.848 222.693 224.001 222.499 224.001ZM218.564 224.001H216.593C216.399 224.001 216.246 223.848 216.246 223.654C216.246 223.46 216.399 223.307 216.593 223.307H218.564C218.759 223.307 218.911 223.46 218.911 223.654C218.911 223.848 218.759 224.001 218.564 224.001ZM214.629 224.001H212.659C212.464 224.001 212.312 223.848 212.312 223.654C212.312 223.46 212.464 223.307 212.659 223.307H214.629C214.824 223.307 214.976 223.46 214.976 223.654C214.976 223.848 214.817 224.001 214.629 224.001ZM210.688 224.001H208.717C208.523 224.001 208.37 223.848 208.37 223.654C208.37 223.46 208.523 223.307 208.717 223.307H210.688C210.882 223.307 211.035 223.46 211.035 223.654C211.035 223.848 210.882 224.001 210.688 224.001ZM206.753 224.001H204.782C204.588 224.001 204.435 223.848 204.435 223.654C204.435 223.46 204.588 223.307 204.782 223.307H206.753C206.947 223.307 207.1 223.46 207.1 223.654C207.1 223.848 206.94 224.001 206.753 224.001ZM202.811 224.001H200.84C200.646 224.001 200.493 223.848 200.493 223.654C200.493 223.46 200.646 223.307 200.84 223.307H202.811C203.006 223.307 203.158 223.46 203.158 223.654C203.158 223.848 203.006 224.001 202.811 224.001ZM198.876 224.001H196.906C196.711 224.001 196.559 223.848 196.559 223.654C196.559 223.46 196.711 223.307 196.906 223.307H198.876C199.071 223.307 199.223 223.46 199.223 223.654C199.223 223.848 199.071 224.001 198.876 224.001ZM194.942 224.001H192.971C192.776 224.001 192.624 223.848 192.624 223.654C192.624 223.46 192.776 223.307 192.971 223.307H194.942C195.136 223.307 195.289 223.46 195.289 223.654C195.289 223.848 195.129 224.001 194.942 224.001ZM191 224.001H189.029C188.835 224.001 188.682 223.848 188.682 223.654C188.682 223.46 188.835 223.307 189.029 223.307H191C191.194 223.307 191.347 223.46 191.347 223.654C191.347 223.848 191.194 224.001 191 224.001ZM187.065 224.001H185.094C184.9 224.001 184.747 223.848 184.747 223.654C184.747 223.46 184.9 223.307 185.094 223.307H187.065C187.259 223.307 187.412 223.46 187.412 223.654C187.412 223.848 187.253 224.001 187.065 224.001ZM183.13 223.924C183.11 223.924 183.096 223.924 183.075 223.917C182.388 223.806 181.729 223.578 181.111 223.245C180.944 223.154 180.882 222.939 180.972 222.773C181.062 222.607 181.277 222.544 181.444 222.634C181.985 222.933 182.575 223.134 183.186 223.231C183.373 223.259 183.505 223.439 183.47 223.626C183.443 223.806 183.297 223.924 183.13 223.924ZM269.342 222.808C269.238 222.808 269.133 222.759 269.064 222.669C268.946 222.516 268.974 222.301 269.126 222.183C269.619 221.809 270.043 221.351 270.383 220.838C270.487 220.678 270.702 220.637 270.861 220.741C271.021 220.845 271.063 221.06 270.959 221.219C270.577 221.802 270.098 222.315 269.543 222.738C269.487 222.787 269.418 222.808 269.342 222.808ZM179.744 222.072C179.647 222.072 179.556 222.031 179.487 221.955C179.022 221.434 178.647 220.845 178.377 220.2C178.3 220.026 178.391 219.818 178.564 219.749C178.738 219.673 178.946 219.763 179.015 219.936C179.251 220.505 179.584 221.032 180.001 221.49C180.125 221.636 180.119 221.851 179.973 221.982C179.91 222.038 179.827 222.072 179.744 222.072ZM271.458 219.582C271.43 219.582 271.403 219.583 271.375 219.576C271.188 219.527 271.077 219.34 271.118 219.152C271.222 218.729 271.278 218.286 271.278 217.842V217.28C271.278 217.086 271.43 216.933 271.625 216.933C271.819 216.933 271.972 217.086 271.972 217.28V217.842C271.972 218.341 271.909 218.84 271.791 219.319C271.757 219.478 271.618 219.582 271.458 219.582ZM178.266 218.507C178.085 218.507 177.933 218.362 177.919 218.181C177.912 218.07 177.912 217.96 177.912 217.842V216.191C177.912 215.997 178.064 215.844 178.259 215.844C178.453 215.844 178.606 215.997 178.606 216.191V217.842C178.606 217.946 178.606 218.043 178.613 218.14C178.627 218.334 178.474 218.494 178.286 218.507C178.28 218.507 178.273 218.507 178.266 218.507ZM271.632 215.664C271.437 215.664 271.285 215.511 271.285 215.317V213.347C271.285 213.153 271.437 213 271.632 213C271.826 213 271.979 213.153 271.979 213.347V215.317C271.979 215.504 271.819 215.664 271.632 215.664ZM178.259 214.568C178.064 214.568 177.912 214.415 177.912 214.221V212.251C177.912 212.057 178.064 211.905 178.259 211.905C178.453 211.905 178.606 212.057 178.606 212.251V214.221C178.606 214.415 178.446 214.568 178.259 214.568ZM271.632 211.724C271.437 211.724 271.285 211.572 271.285 211.377V209.408C271.285 209.213 271.437 209.061 271.632 209.061C271.826 209.061 271.979 209.213 271.979 209.408V211.377C271.979 211.572 271.819 211.724 271.632 211.724ZM178.259 210.635C178.064 210.635 177.912 210.483 177.912 210.288V208.319C177.912 208.124 178.064 207.972 178.259 207.972C178.453 207.972 178.606 208.124 178.606 208.319V210.288C178.606 210.476 178.446 210.635 178.259 210.635ZM271.632 207.792C271.437 207.792 271.285 207.639 271.285 207.445V205.475C271.285 205.281 271.437 205.128 271.632 205.128C271.826 205.128 271.979 205.281 271.979 205.475V207.445C271.979 207.632 271.819 207.792 271.632 207.792ZM178.259 206.696C178.064 206.696 177.912 206.543 177.912 206.349V204.379C177.912 204.185 178.064 204.032 178.259 204.032C178.453 204.032 178.606 204.185 178.606 204.379V206.349C178.606 206.543 178.446 206.696 178.259 206.696ZM271.632 203.852C271.437 203.852 271.285 203.699 271.285 203.505V201.535C271.285 201.341 271.437 201.189 271.632 201.189C271.826 201.189 271.979 201.341 271.979 201.535V203.505C271.979 203.699 271.819 203.852 271.632 203.852ZM178.259 202.763C178.064 202.763 177.912 202.61 177.912 202.416V200.447C177.912 200.252 178.064 200.1 178.259 200.1C178.453 200.1 178.606 200.252 178.606 200.447V202.416C178.606 202.61 178.446 202.763 178.259 202.763ZM271.632 199.919C271.437 199.919 271.285 199.767 271.285 199.573V197.603C271.285 197.409 271.437 197.256 271.632 197.256C271.826 197.256 271.979 197.409 271.979 197.603V199.573C271.979 199.767 271.819 199.919 271.632 199.919ZM178.259 198.83C178.064 198.83 177.912 198.678 177.912 198.484V196.514C177.912 196.32 178.064 196.167 178.259 196.167C178.453 196.167 178.606 196.32 178.606 196.514V198.484C178.606 198.671 178.446 198.83 178.259 198.83ZM271.632 195.987C271.437 195.987 271.285 195.834 271.285 195.64V193.67C271.285 193.476 271.437 193.323 271.632 193.323C271.826 193.323 271.979 193.476 271.979 193.67V195.64C271.979 195.827 271.819 195.987 271.632 195.987ZM178.259 194.891C178.064 194.891 177.912 194.738 177.912 194.544V192.574C177.912 192.38 178.064 192.228 178.259 192.228C178.453 192.228 178.606 192.38 178.606 192.574V194.544C178.606 194.738 178.446 194.891 178.259 194.891ZM271.632 192.047C271.437 192.047 271.285 191.895 271.285 191.7V189.731C271.285 189.536 271.437 189.384 271.632 189.384C271.826 189.384 271.979 189.536 271.979 189.731V191.7C271.979 191.895 271.819 192.047 271.632 192.047ZM178.259 190.958C178.064 190.958 177.912 190.806 177.912 190.611V188.995C177.912 188.871 177.919 188.746 177.926 188.621C177.94 188.427 178.099 188.281 178.293 188.295C178.488 188.309 178.633 188.468 178.62 188.663C178.613 188.773 178.613 188.884 178.613 188.989V190.605C178.606 190.806 178.446 190.958 178.259 190.958ZM271.5 188.122C271.34 188.122 271.195 188.011 271.16 187.844C271.028 187.241 270.799 186.665 270.48 186.138C270.383 185.971 270.431 185.763 270.591 185.659C270.757 185.555 270.965 185.611 271.07 185.77C271.437 186.367 271.694 187.019 271.84 187.698C271.882 187.886 271.757 188.073 271.576 188.108C271.548 188.122 271.528 188.122 271.5 188.122ZM178.71 187.081C178.668 187.081 178.62 187.074 178.578 187.053C178.404 186.977 178.321 186.776 178.391 186.596C178.661 185.958 179.036 185.368 179.508 184.848C179.64 184.709 179.855 184.695 180.001 184.827C180.139 184.959 180.153 185.174 180.021 185.319C179.605 185.777 179.272 186.304 179.029 186.873C178.974 187.005 178.849 187.081 178.71 187.081ZM269.487 184.834C269.411 184.834 269.335 184.806 269.265 184.758C268.78 184.362 268.245 184.064 267.662 183.849C267.482 183.787 267.392 183.585 267.454 183.405C267.516 183.225 267.718 183.135 267.898 183.197C268.557 183.433 269.161 183.773 269.702 184.217C269.848 184.335 269.876 184.557 269.751 184.702C269.682 184.785 269.585 184.834 269.487 184.834ZM181.305 184.224C181.18 184.224 181.062 184.161 181 184.043C180.91 183.877 180.972 183.662 181.139 183.572C181.756 183.239 182.416 183.017 183.11 182.906C183.304 182.878 183.477 183.003 183.505 183.197C183.533 183.391 183.408 183.565 183.214 183.592C182.603 183.69 182.013 183.884 181.472 184.182C181.423 184.21 181.368 184.224 181.305 184.224ZM265.851 183.53H263.88C263.686 183.53 263.533 183.377 263.533 183.183C263.533 182.989 263.686 182.836 263.88 182.836H265.816C266.011 182.836 266.177 182.989 266.177 183.183C266.177 183.377 266.038 183.53 265.851 183.53ZM261.909 183.53H259.938C259.744 183.53 259.591 183.377 259.591 183.183C259.591 182.989 259.744 182.836 259.938 182.836H261.909C262.104 182.836 262.256 182.989 262.256 183.183C262.256 183.377 262.104 183.53 261.909 183.53ZM257.974 183.53H256.004C255.809 183.53 255.657 183.377 255.657 183.183C255.657 182.989 255.809 182.836 256.004 182.836H257.974C258.169 182.836 258.321 182.989 258.321 183.183C258.321 183.377 258.169 183.53 257.974 183.53ZM254.04 183.53H252.069C251.875 183.53 251.722 183.377 251.722 183.183C251.722 182.989 251.875 182.836 252.069 182.836H254.04C254.234 182.836 254.387 182.989 254.387 183.183C254.387 183.377 254.227 183.53 254.04 183.53ZM250.098 183.53H248.127C247.933 183.53 247.78 183.377 247.78 183.183C247.78 182.989 247.933 182.836 248.127 182.836H250.098C250.292 182.836 250.445 182.989 250.445 183.183C250.445 183.377 250.292 183.53 250.098 183.53ZM246.163 183.53H244.192C243.998 183.53 243.845 183.377 243.845 183.183C243.845 182.989 243.998 182.836 244.192 182.836H246.163C246.358 182.836 246.51 182.989 246.51 183.183C246.51 183.377 246.351 183.53 246.163 183.53ZM242.221 183.53H240.251C240.056 183.53 239.904 183.377 239.904 183.183C239.904 182.989 240.056 182.836 240.251 182.836H242.221C242.416 182.836 242.568 182.989 242.568 183.183C242.568 183.377 242.416 183.53 242.221 183.53ZM238.287 183.53H236.316C236.122 183.53 235.969 183.377 235.969 183.183C235.969 182.989 236.122 182.836 236.316 182.836H238.287C238.481 182.836 238.634 182.989 238.634 183.183C238.634 183.377 238.481 183.53 238.287 183.53ZM234.352 183.53H232.381C232.187 183.53 232.034 183.377 232.034 183.183C232.034 182.989 232.187 182.836 232.381 182.836H234.352C234.546 182.836 234.699 182.989 234.699 183.183C234.699 183.377 234.539 183.53 234.352 183.53ZM230.41 183.53H228.439C228.245 183.53 228.092 183.377 228.092 183.183C228.092 182.989 228.245 182.836 228.439 182.836H230.41C230.604 182.836 230.757 182.989 230.757 183.183C230.757 183.377 230.604 183.53 230.41 183.53ZM226.475 183.53H224.505C224.31 183.53 224.158 183.377 224.158 183.183C224.158 182.989 224.31 182.836 224.505 182.836H226.475C226.67 182.836 226.822 182.989 226.822 183.183C226.822 183.377 226.663 183.53 226.475 183.53ZM222.534 183.53H220.563C220.369 183.53 220.216 183.377 220.216 183.183C220.216 182.989 220.369 182.836 220.563 182.836H222.534C222.728 182.836 222.881 182.989 222.881 183.183C222.881 183.377 222.728 183.53 222.534 183.53ZM218.599 183.53H216.628C216.434 183.53 216.281 183.377 216.281 183.183C216.281 182.989 216.434 182.836 216.628 182.836H218.599C218.793 182.836 218.946 182.989 218.946 183.183C218.946 183.377 218.793 183.53 218.599 183.53ZM214.664 183.53H212.693C212.499 183.53 212.346 183.377 212.346 183.183C212.346 182.989 212.499 182.836 212.693 182.836H214.664C214.858 182.836 215.011 182.989 215.011 183.183C215.011 183.377 214.851 183.53 214.664 183.53ZM210.722 183.53H208.752C208.557 183.53 208.405 183.377 208.405 183.183C208.405 182.989 208.557 182.836 208.752 182.836H210.722C210.917 182.836 211.069 182.989 211.069 183.183C211.069 183.377 210.917 183.53 210.722 183.53ZM206.788 183.53H204.817C204.622 183.53 204.47 183.377 204.47 183.183C204.47 182.989 204.622 182.836 204.817 182.836H206.788C206.982 182.836 207.135 182.989 207.135 183.183C207.135 183.377 206.975 183.53 206.788 183.53ZM202.846 183.53H200.875C200.681 183.53 200.528 183.377 200.528 183.183C200.528 182.989 200.681 182.836 200.875 182.836H202.846C203.04 182.836 203.193 182.989 203.193 183.183C203.193 183.377 203.04 183.53 202.846 183.53ZM198.911 183.53H196.94C196.746 183.53 196.593 183.377 196.593 183.183C196.593 182.989 196.746 182.836 196.94 182.836H198.911C199.105 182.836 199.258 182.989 199.258 183.183C199.258 183.377 199.105 183.53 198.911 183.53ZM194.976 183.53H193.005C192.811 183.53 192.658 183.377 192.658 183.183C192.658 182.989 192.811 182.836 193.005 182.836H194.976C195.171 182.836 195.323 182.989 195.323 183.183C195.323 183.377 195.164 183.53 194.976 183.53ZM191.035 183.53H189.064C188.869 183.53 188.717 183.377 188.717 183.183C188.717 182.989 188.869 182.836 189.064 182.836H191.035C191.229 182.836 191.382 182.989 191.382 183.183C191.382 183.377 191.229 183.53 191.035 183.53ZM187.1 183.53H185.129C184.935 183.53 184.782 183.377 184.782 183.183C184.782 182.989 184.935 182.836 185.129 182.836H187.1C187.294 182.836 187.447 182.989 187.447 183.183C187.447 183.377 187.287 183.53 187.1 183.53Z" fill="white"/>
<path d="M261.673 124.686H259.702C259.508 124.686 259.355 124.534 259.355 124.34C259.355 124.145 259.508 123.993 259.702 123.993H261.673C262.249 123.993 262.804 123.868 263.325 123.625C263.498 123.542 263.707 123.618 263.79 123.792C263.873 123.965 263.797 124.173 263.623 124.256C263.006 124.541 262.353 124.686 261.673 124.686ZM257.732 124.686H255.761C255.566 124.686 255.414 124.534 255.414 124.34C255.414 124.145 255.566 123.993 255.761 123.993H257.732C257.926 123.993 258.079 124.145 258.079 124.34C258.079 124.534 257.926 124.686 257.732 124.686ZM253.797 124.686H251.826C251.632 124.686 251.479 124.534 251.479 124.34C251.479 124.145 251.632 123.993 251.826 123.993H253.797C253.991 123.993 254.144 124.145 254.144 124.34C254.144 124.534 253.991 124.686 253.797 124.686ZM249.855 124.686H247.884C247.69 124.686 247.537 124.534 247.537 124.34C247.537 124.145 247.69 123.993 247.884 123.993H249.855C250.049 123.993 250.202 124.145 250.202 124.34C250.202 124.534 250.049 124.686 249.855 124.686ZM245.92 124.686H243.949C243.755 124.686 243.602 124.534 243.602 124.34C243.602 124.145 243.755 123.993 243.949 123.993H245.92C246.115 123.993 246.267 124.145 246.267 124.34C246.267 124.534 246.115 124.686 245.92 124.686ZM241.986 124.686H240.015C239.82 124.686 239.668 124.534 239.668 124.34C239.668 124.145 239.82 123.993 240.015 123.993H241.986C242.18 123.993 242.333 124.145 242.333 124.34C242.333 124.534 242.173 124.686 241.986 124.686ZM238.044 124.686H236.073C235.879 124.686 235.726 124.534 235.726 124.34C235.726 124.145 235.879 123.993 236.073 123.993H238.044C238.238 123.993 238.391 124.145 238.391 124.34C238.391 124.534 238.238 124.686 238.044 124.686ZM234.109 124.686H232.138C231.944 124.686 231.791 124.534 231.791 124.34C231.791 124.145 231.944 123.993 232.138 123.993H234.109C234.303 123.993 234.456 124.145 234.456 124.34C234.456 124.534 234.303 124.686 234.109 124.686ZM230.174 124.686H228.203C228.009 124.686 227.856 124.534 227.856 124.34C227.856 124.145 228.009 123.993 228.203 123.993H230.174C230.369 123.993 230.521 124.145 230.521 124.34C230.521 124.534 230.362 124.686 230.174 124.686ZM226.233 124.686H224.262C224.067 124.686 223.915 124.534 223.915 124.34C223.915 124.145 224.067 123.993 224.262 123.993H226.233C226.427 123.993 226.58 124.145 226.58 124.34C226.58 124.534 226.427 124.686 226.233 124.686ZM222.298 124.686H221.125C220.84 124.686 220.549 124.659 220.271 124.603C220.084 124.568 219.959 124.388 219.994 124.201C220.028 124.014 220.209 123.889 220.396 123.923C220.632 123.972 220.875 123.993 221.118 123.993H222.291C222.485 123.993 222.638 124.145 222.638 124.34C222.638 124.534 222.485 124.686 222.298 124.686ZM218.557 123.812C218.481 123.812 218.412 123.792 218.342 123.743C217.78 123.306 217.322 122.737 217.017 122.099C216.933 121.926 217.01 121.718 217.183 121.635C217.357 121.551 217.565 121.628 217.648 121.801C217.905 122.342 218.294 122.828 218.772 123.195C218.925 123.313 218.953 123.528 218.835 123.681C218.759 123.764 218.654 123.812 218.557 123.812ZM264.99 123.063C264.914 123.063 264.845 123.043 264.775 122.994C264.623 122.876 264.595 122.661 264.713 122.508C265.081 122.03 265.337 121.468 265.448 120.879C265.483 120.691 265.671 120.566 265.851 120.601C266.038 120.636 266.163 120.816 266.129 121.003C265.997 121.697 265.698 122.363 265.261 122.925C265.192 123.015 265.095 123.063 264.99 123.063ZM216.926 120.386C216.732 120.386 216.579 120.234 216.579 120.039V118.07C216.579 117.875 216.732 117.723 216.926 117.723C217.121 117.723 217.273 117.875 217.273 118.07V120.039C217.273 120.234 217.121 120.386 216.926 120.386ZM265.865 119.325C265.671 119.325 265.518 119.172 265.518 118.978V117.008C265.518 116.814 265.671 116.662 265.865 116.662C266.059 116.662 266.212 116.814 266.212 117.008V118.978C266.212 119.165 266.059 119.325 265.865 119.325ZM216.926 116.453C216.732 116.453 216.579 116.301 216.579 116.107V114.137C216.579 113.943 216.732 113.79 216.926 113.79C217.121 113.79 217.273 113.943 217.273 114.137V116.107C217.273 116.294 217.121 116.453 216.926 116.453ZM265.865 115.385C265.671 115.385 265.518 115.233 265.518 115.039V113.069C265.518 112.875 265.671 112.722 265.865 112.722C266.059 112.722 266.212 112.875 266.212 113.069V115.039C266.212 115.233 266.059 115.385 265.865 115.385ZM216.926 112.514C216.732 112.514 216.579 112.361 216.579 112.167V110.197C216.579 110.003 216.732 109.851 216.926 109.851C217.121 109.851 217.273 110.003 217.273 110.197V112.167C217.273 112.361 217.121 112.514 216.926 112.514ZM265.865 111.453C265.671 111.453 265.518 111.3 265.518 111.106V109.136C265.518 108.942 265.671 108.789 265.865 108.789C266.059 108.789 266.212 108.942 266.212 109.136V111.106C266.212 111.3 266.059 111.453 265.865 111.453ZM216.926 108.581C216.732 108.581 216.579 108.429 216.579 108.234V106.265C216.579 106.071 216.732 105.918 216.926 105.918C217.121 105.918 217.273 106.071 217.273 106.265V108.234C217.273 108.422 217.121 108.581 216.926 108.581ZM265.865 107.52C265.671 107.52 265.518 107.368 265.518 107.173V105.204C265.518 105.009 265.671 104.857 265.865 104.857C266.059 104.857 266.212 105.009 266.212 105.204V107.173C266.212 107.361 266.059 107.52 265.865 107.52ZM216.926 104.642C216.732 104.642 216.579 104.489 216.579 104.295V102.325C216.579 102.131 216.732 101.978 216.926 101.978C217.121 101.978 217.273 102.131 217.273 102.325V104.295C217.273 104.489 217.121 104.642 216.926 104.642ZM265.865 103.581C265.671 103.581 265.518 103.428 265.518 103.234V101.264C265.518 101.07 265.671 100.917 265.865 100.917C266.059 100.917 266.212 101.07 266.212 101.264V103.234C266.212 103.428 266.059 103.581 265.865 103.581ZM216.926 100.709C216.732 100.709 216.579 100.557 216.579 100.362V100.12C216.579 99.4884 216.704 98.878 216.954 98.3093C217.031 98.1359 217.232 98.0527 217.412 98.129C217.586 98.2053 217.669 98.4133 217.593 98.5867C217.378 99.0722 217.273 99.5924 217.273 100.126V100.369C217.273 100.557 217.121 100.709 216.926 100.709ZM265.789 99.6548C265.629 99.6548 265.483 99.5369 265.448 99.3774C265.331 98.7879 265.074 98.2261 264.699 97.7544C264.581 97.6018 264.609 97.3868 264.755 97.2689C264.907 97.151 265.122 97.1788 265.24 97.3244C265.677 97.8862 265.983 98.5451 266.122 99.2456C266.156 99.4329 266.038 99.6132 265.851 99.6548C265.83 99.6479 265.809 99.6548 265.789 99.6548ZM218.453 97.2342C218.356 97.2342 218.252 97.1926 218.183 97.1094C218.058 96.9637 218.078 96.7418 218.231 96.6239C218.779 96.173 219.439 95.8471 220.126 95.6945C220.313 95.6529 220.5 95.7708 220.542 95.958C220.584 96.1453 220.466 96.3326 220.278 96.3742C219.695 96.506 219.14 96.7765 218.675 97.1649C218.606 97.2065 218.53 97.2342 218.453 97.2342ZM263.45 96.6655C263.401 96.6655 263.353 96.6516 263.304 96.6308C262.791 96.3881 262.242 96.2702 261.673 96.2702H261.541C261.347 96.2702 261.194 96.1176 261.194 95.9234C261.194 95.7292 261.347 95.5766 261.541 95.5766H261.673C262.346 95.5766 262.992 95.7222 263.596 95.9997C263.769 96.0829 263.845 96.291 263.762 96.4644C263.7 96.5892 263.575 96.6655 263.45 96.6655ZM259.571 96.2702H257.6C257.405 96.2702 257.253 96.1176 257.253 95.9234C257.253 95.7292 257.405 95.5766 257.6 95.5766H259.571C259.765 95.5766 259.918 95.7292 259.918 95.9234C259.918 96.1176 259.758 96.2702 259.571 96.2702ZM255.629 96.2702H253.658C253.464 96.2702 253.311 96.1176 253.311 95.9234C253.311 95.7292 253.464 95.5766 253.658 95.5766H255.629C255.823 95.5766 255.976 95.7292 255.976 95.9234C255.976 96.1176 255.823 96.2702 255.629 96.2702ZM251.694 96.2702H249.723C249.529 96.2702 249.376 96.1176 249.376 95.9234C249.376 95.7292 249.529 95.5766 249.723 95.5766H251.694C251.888 95.5766 252.041 95.7292 252.041 95.9234C252.041 96.1176 251.881 96.2702 251.694 96.2702ZM247.752 96.2702H245.782C245.587 96.2702 245.435 96.1176 245.435 95.9234C245.435 95.7292 245.587 95.5766 245.782 95.5766H247.752C247.947 95.5766 248.099 95.7292 248.099 95.9234C248.099 96.1176 247.947 96.2702 247.752 96.2702ZM243.818 96.2702H241.847C241.652 96.2702 241.5 96.1176 241.5 95.9234C241.5 95.7292 241.652 95.5766 241.847 95.5766H243.818C244.012 95.5766 244.165 95.7292 244.165 95.9234C244.165 96.1176 244.012 96.2702 243.818 96.2702ZM239.883 96.2702H237.912C237.718 96.2702 237.565 96.1176 237.565 95.9234C237.565 95.7292 237.718 95.5766 237.912 95.5766H239.883C240.077 95.5766 240.23 95.7292 240.23 95.9234C240.23 96.1176 240.07 96.2702 239.883 96.2702ZM235.941 96.2702H233.97C233.776 96.2702 233.623 96.1176 233.623 95.9234C233.623 95.7292 233.776 95.5766 233.97 95.5766H235.941C236.135 95.5766 236.288 95.7292 236.288 95.9234C236.288 96.1176 236.135 96.2702 235.941 96.2702ZM232.006 96.2702H230.035C229.841 96.2702 229.688 96.1176 229.688 95.9234C229.688 95.7292 229.841 95.5766 230.035 95.5766H232.006C232.201 95.5766 232.353 95.7292 232.353 95.9234C232.353 96.1176 232.194 96.2702 232.006 96.2702ZM228.065 96.2702H226.094C225.899 96.2702 225.747 96.1176 225.747 95.9234C225.747 95.7292 225.899 95.5766 226.094 95.5766H228.065C228.259 95.5766 228.412 95.7292 228.412 95.9234C228.412 96.1176 228.259 96.2702 228.065 96.2702ZM224.13 96.2702H222.159C221.965 96.2702 221.812 96.1176 221.812 95.9234C221.812 95.7292 221.965 95.5766 222.159 95.5766H224.13C224.324 95.5766 224.477 95.7292 224.477 95.9234C224.477 96.1176 224.324 96.2702 224.13 96.2702Z" fill="#03159D"/>
<path d="M270.403 176.449H186.656C183.894 176.449 181.659 174.215 181.659 171.455V136.151C181.659 133.391 183.894 131.157 186.656 131.157H270.403C273.165 131.157 275.4 133.391 275.4 136.151V171.455C275.4 174.215 273.165 176.449 270.403 176.449Z" fill="#151A40"/>
<path d="M271.632 132.482V167.806C271.632 170.56 269.397 172.786 266.642 172.786H183.248C180.493 172.786 178.259 170.56 178.259 167.806V132.482C178.259 129.729 180.493 127.495 183.248 127.495H266.642C269.397 127.495 271.632 129.729 271.632 132.482Z" fill="white"/>
<path d="M210.514 169.103H185.948C184.088 169.103 182.575 167.591 182.575 165.733V141.18C182.575 139.321 184.088 137.809 185.948 137.809H210.514C212.374 137.809 213.887 139.321 213.887 141.18V165.733C213.887 167.591 212.374 169.103 210.514 169.103Z" fill="#03159D"/>
<path d="M239.633 141.762H217.995C217.405 141.762 216.927 141.284 216.927 140.694C216.927 140.105 217.405 139.626 217.995 139.626H239.633C240.223 139.626 240.702 140.105 240.702 140.694C240.695 141.291 240.216 141.762 239.633 141.762Z" fill="#03159D"/>
<path d="M229.772 146.014H217.995C217.405 146.014 216.926 145.535 216.926 144.946C216.926 144.356 217.405 143.878 217.995 143.878H229.772C230.362 143.878 230.84 144.356 230.84 144.946C230.833 145.542 230.355 146.014 229.772 146.014Z" fill="#03159D"/>
<path d="M265.969 146.014H234.102C233.512 146.014 233.033 145.535 233.033 144.946C233.033 144.356 233.512 143.878 234.102 143.878H265.969C266.559 143.878 267.038 144.356 267.038 144.946C267.038 145.542 266.559 146.014 265.969 146.014Z" fill="#03159D"/>
<path d="M236.212 150.266H217.988C217.398 150.266 216.919 149.787 216.919 149.198C216.919 148.608 217.398 148.129 217.988 148.129H236.212C236.802 148.129 237.28 148.608 237.28 149.198C237.28 149.794 236.802 150.266 236.212 150.266Z" fill="#03159D"/>
<path d="M251.68 150.266H240.223C239.633 150.266 239.161 149.787 239.161 149.198C239.161 148.608 239.64 148.129 240.223 148.129H251.68C252.27 148.129 252.749 148.608 252.749 149.198C252.749 149.794 252.27 150.266 251.68 150.266Z" fill="#03159D"/>
<path d="M265.969 150.266H255.421C254.831 150.266 254.352 149.787 254.352 149.198C254.352 148.608 254.831 148.129 255.421 148.129H265.969C266.559 148.129 267.038 148.608 267.038 149.198C267.038 149.794 266.559 150.266 265.969 150.266Z" fill="#03159D"/>
<path d="M265.969 154.517H217.988C217.398 154.517 216.919 154.039 216.919 153.449C216.919 152.86 217.398 152.381 217.988 152.381H265.969C266.559 152.381 267.038 152.86 267.038 153.449C267.038 154.039 266.559 154.517 265.969 154.517Z" fill="#03159D"/>
<path d="M244.4 158.769H217.995C217.405 158.769 216.926 158.29 216.926 157.701C216.926 157.111 217.405 156.633 217.995 156.633H244.4C244.99 156.633 245.469 157.111 245.469 157.701C245.462 158.29 244.99 158.769 244.4 158.769Z" fill="#03159D"/>
<path d="M265.969 158.769H248.654C248.065 158.769 247.586 158.29 247.586 157.701C247.586 157.111 248.065 156.633 248.654 156.633H265.969C266.559 156.633 267.038 157.111 267.038 157.701C267.038 158.29 266.559 158.769 265.969 158.769Z" fill="#03159D"/>
<path d="M233.505 163.021H217.988C217.398 163.021 216.919 162.542 216.919 161.953C216.919 161.363 217.398 160.884 217.988 160.884H233.505C234.095 160.884 234.574 161.363 234.574 161.953C234.574 162.542 234.095 163.021 233.505 163.021Z" fill="#03159D"/>
<path d="M253.221 163.021H237.704C237.114 163.021 236.635 162.542 236.635 161.953C236.635 161.363 237.114 160.884 237.704 160.884H253.221C253.811 160.884 254.289 161.363 254.289 161.953C254.289 162.542 253.811 163.021 253.221 163.021Z" fill="#03159D"/>
<path d="M265.969 163.021H256.968C256.378 163.021 255.899 162.542 255.899 161.953C255.899 161.363 256.378 160.884 256.968 160.884H265.969C266.559 160.884 267.038 161.363 267.038 161.953C267.038 162.542 266.559 163.021 265.969 163.021Z" fill="#03159D"/>
<path d="M239.633 167.272H217.995C217.405 167.272 216.926 166.794 216.926 166.204C216.926 165.615 217.405 165.136 217.995 165.136H239.633C240.223 165.136 240.702 165.615 240.702 166.204C240.695 166.794 240.216 167.272 239.633 167.272Z" fill="#03159D"/>
<path d="M265.969 141.762H244.331C243.741 141.762 243.262 141.284 243.262 140.694C243.262 140.105 243.741 139.626 244.331 139.626H265.969C266.559 139.626 267.038 140.105 267.038 140.694C267.038 141.291 266.559 141.762 265.969 141.762Z" fill="#03159D"/>
<path d="M271.632 132.482V133.966H178.259V132.482C178.259 129.729 180.493 127.495 183.248 127.495H266.642C269.397 127.495 271.632 129.729 271.632 132.482Z" fill="#03159D"/>
<path d="M254.033 130.845C254.033 131.483 253.512 132.004 252.874 132.004C252.235 132.004 251.715 131.483 251.715 130.845C251.715 130.207 252.235 129.687 252.874 129.687C253.512 129.687 254.033 130.207 254.033 130.845Z" fill="#DEE3FC"/>
<path d="M259.945 130.845C259.945 131.483 259.425 132.004 258.786 132.004C258.148 132.004 257.627 131.483 257.627 130.845C257.627 130.207 258.148 129.687 258.786 129.687C259.425 129.687 259.945 130.207 259.945 130.845Z" fill="#DEE3FC"/>
<path d="M265.865 130.845C265.865 131.483 265.344 132.004 264.706 132.004C264.067 132.004 263.547 131.483 263.547 130.845C263.547 130.207 264.067 129.687 264.706 129.687C265.351 129.687 265.865 130.207 265.865 130.845Z" fill="#DEE3FC"/>
<path d="M207.162 124.652H188.682C185.774 124.652 183.408 122.286 183.408 119.38V100.91C183.408 98.0041 185.774 95.639 188.682 95.639H207.162C210.07 95.639 212.436 98.0041 212.436 100.91V119.38C212.436 122.286 210.07 124.652 207.162 124.652ZM188.682 96.2632C186.114 96.2632 184.032 98.3509 184.032 100.91V119.38C184.032 121.947 186.121 124.027 188.682 124.027H207.162C209.73 124.027 211.812 121.94 211.812 119.38V100.91C211.812 98.344 209.723 96.2632 207.162 96.2632H188.682Z" fill="#03159D"/>
<path d="M193.526 114.83C193.38 114.83 193.227 114.775 193.116 114.657L188.994 110.537C188.765 110.308 188.765 109.941 188.994 109.719L193.089 105.627C193.318 105.398 193.685 105.398 193.908 105.627C194.137 105.855 194.137 106.223 193.908 106.445L190.223 110.128L193.935 113.839C194.164 114.068 194.164 114.435 193.935 114.657C193.824 114.775 193.672 114.83 193.526 114.83Z" fill="white"/>
<path d="M202.325 114.83C202.18 114.83 202.027 114.775 201.916 114.657C201.687 114.428 201.687 114.061 201.916 113.839L205.629 110.128L201.944 106.445C201.715 106.216 201.715 105.849 201.944 105.627C202.173 105.398 202.54 105.398 202.763 105.627L206.857 109.719C206.968 109.83 207.03 109.975 207.03 110.128C207.03 110.281 206.968 110.426 206.857 110.537L202.735 114.657C202.617 114.775 202.471 114.83 202.325 114.83Z" fill="white"/>
<path d="M196.01 114.83C195.927 114.83 195.844 114.81 195.767 114.775C195.476 114.643 195.351 114.296 195.49 114.005L199.32 105.793C199.452 105.502 199.799 105.377 200.091 105.516C200.382 105.647 200.507 105.994 200.368 106.286L196.538 114.498C196.434 114.706 196.225 114.83 196.01 114.83Z" fill="white"/>
<path d="M271.632 26.662V84.4168C271.632 87.5518 269.092 90.0903 265.955 90.0903H183.935C180.806 90.0903 178.259 87.5518 178.259 84.4168V26.662C178.259 23.527 180.806 20.9885 183.935 20.9885H265.955C269.092 20.9885 271.632 23.527 271.632 26.662Z" fill="white"/>
<path d="M252.721 52.7616C260.195 52.7616 266.253 46.7063 266.253 39.2367C266.253 31.7671 260.195 25.7118 252.721 25.7118C245.247 25.7118 239.189 31.7671 239.189 39.2367C239.189 46.7063 245.247 52.7616 252.721 52.7616Z" fill="#03159D"/>
<path d="M233.144 90.0903H183.935C180.806 90.0903 178.259 87.5518 178.259 84.4168V75.3239L199.792 38.0437C200.917 36.0948 203.734 36.0948 204.858 38.0437L221.118 66.1894L233.193 87.094C233.776 88.0928 233.686 89.2303 233.144 90.0903Z" fill="#151A40"/>
<path d="M254.366 90.0903H207.308L221.118 66.1894L228.557 53.3095C229.57 51.5547 232.103 51.5547 233.117 53.3095L254.366 90.0903Z" fill="#03159D"/>
<path d="M347.704 197.409H311.424V251.897H347.704V197.409Z" fill="#03159D"/>
<path d="M347.695 251.893H361.589V197.405H347.695V251.893Z" fill="#151A40"/>
<path d="M359.89 199.496H349.689V201.237H359.89V199.496Z" fill="#B2C1F9"/>
<path d="M359.89 203.235H349.689V204.976H359.89V203.235Z" fill="#B2C1F9"/>
<path d="M359.89 206.973H349.689V208.714H359.89V206.973Z" fill="#B2C1F9"/>
<path d="M359.89 210.705H349.689V212.446H359.89V210.705Z" fill="#B2C1F9"/>
<path d="M359.89 214.443H349.689V216.184H359.89V214.443Z" fill="#B2C1F9"/>
<path d="M359.89 218.175H349.689V219.915H359.89V218.175Z" fill="#B2C1F9"/>
<path d="M359.89 221.913H349.689V223.654H359.89V221.913Z" fill="#B2C1F9"/>
<path d="M359.89 225.651H349.689V227.392H359.89V225.651Z" fill="#B2C1F9"/>
<path d="M359.89 229.383H349.689V231.124H359.89V229.383Z" fill="#B2C1F9"/>
<path d="M359.89 233.121H349.689V234.862H359.89V233.121Z" fill="#B2C1F9"/>
<path d="M359.89 236.86H349.689V238.601H359.89V236.86Z" fill="#B2C1F9"/>
<path d="M359.89 240.591H349.689V242.332H359.89V240.591Z" fill="#B2C1F9"/>
<path d="M359.89 244.33H349.689V246.071H359.89V244.33Z" fill="#B2C1F9"/>
<path d="M359.89 248.061H349.689V249.802H359.89V248.061Z" fill="#B2C1F9"/>
<path d="M305.532 251.897H323.97C323.97 251.897 324.997 248.616 322.77 244.552C322.77 244.552 321.285 245.738 316.843 244.933C316.843 244.933 314.991 246.507 313.707 247.125C312.409 247.749 305.032 249.199 305.532 251.897Z" fill="#281616"/>
<path d="M306.816 199.933C308.009 207.036 313.499 231.061 315.865 245.252C320.181 245.62 322.256 245.127 323.353 244.871C323.138 239.918 322.714 228.079 322.763 222.891C322.846 214.117 323.256 202.548 319.39 196.195L306.392 197.214C306.469 197.901 306.545 198.456 306.607 198.858C306.67 199.247 306.746 199.6 306.816 199.933Z" fill="#002C54"/>
<path d="M272.18 251.897H290.618C290.618 251.897 291.646 248.616 289.418 244.552C289.418 244.552 287.933 245.738 283.491 244.933C283.491 244.933 281.639 246.507 280.355 247.125C279.064 247.749 271.687 249.199 272.18 251.897Z" fill="#281616"/>
<path d="M282.95 244.843C286.476 245.717 289.022 245.627 290.23 245.495C291.208 239.787 292.756 227.24 294.151 221.351C296.316 212.203 298.433 199.628 296.961 195.141L284.179 191.929C284.144 192.339 283.103 230.832 282.95 244.843Z" fill="#151A40"/>
<path d="M333.832 178.834C333.575 176.31 333.276 174.465 333.276 174.465L318.995 177.961L306.864 180.721C302.367 181.72 296.934 182.927 292.145 184.009C286.767 185.229 283.2 189.308 284.38 194.69L285.726 201.216C293.242 201.112 328.592 197.728 331.611 196.202C335.025 194.475 336.052 188.385 333.832 178.834Z" fill="#151A40"/>
<path d="M355.15 178.834C354.893 176.31 353.658 173.598 353.658 173.598L340.313 177.954L328.183 180.714C323.686 181.713 318.252 182.92 313.464 184.002C308.086 185.222 304.519 189.301 305.698 194.683L307.045 201.21C314.56 201.105 345.983 200.01 352.93 196.195C356.281 194.357 357.371 188.385 355.15 178.834Z" fill="#002C54"/>
<path d="M315.171 158.381C315.171 158.381 321.514 155.516 323.263 158.388C324.22 159.962 323.554 162.882 321.396 164.11C319.231 165.337 307.01 170.505 295.469 173.383C295.469 173.383 294.977 171.781 294.178 170.095C294.178 170.095 299.355 167.952 304.498 164.339C309.647 160.718 315.171 158.381 315.171 158.381Z" fill="#E5918F"/>
<path d="M316.76 138.579L311.326 160.281C311.326 160.281 311.889 165.767 317.433 163.076C322.978 160.385 326.649 143.094 326.649 143.094L316.76 138.579Z" fill="#E5918F"/>
<path d="M325.955 150.717C325.282 150.557 324.644 150.377 324.019 150.189C323.387 150.002 322.784 149.808 322.208 149.607C317.045 147.838 314.248 145.709 314.248 145.709C315.872 138.655 317.829 133.911 319.571 130.79C319.619 130.714 319.661 130.644 319.703 130.561C319.751 130.485 319.793 130.408 319.841 130.332C320.778 128.778 322.124 127.475 323.623 126.399C323.776 126.288 323.922 126.191 324.081 126.08L324.72 137.414L324.831 138.579L325.955 150.717Z" fill="#5295E7"/>
<path d="M325.955 150.717C325.282 150.557 324.644 150.377 324.019 150.189C323.388 150.002 322.784 149.808 322.208 149.607C323.29 141.977 324.276 137.178 324.276 137.178L324.831 138.579L325.955 150.717Z" fill="#03159D"/>
<path d="M358.051 131.123C357.919 134.48 357.329 139.862 356.823 145.272C356.663 146.985 356.504 148.712 356.372 150.37C356.281 151.403 354.72 156.931 354.658 157.923C354.38 162.653 352.062 166.19 354.255 173.397C354.783 175.124 354.914 176.012 354.914 176.719C354.914 177.211 354.276 177.732 354.019 177.87C353.096 178.404 351.292 178.772 349.092 179.043H349.085C344.762 179.57 338.932 179.667 335.414 179.667C330.688 179.667 323.596 178.918 322.701 177.725C321.882 176.636 322.638 175.047 323.027 172.863C324.769 162.993 324.151 157.847 324.04 150.717C324.04 150.536 324.033 150.363 324.033 150.176C323.853 139.182 323.131 129.777 323.637 126.386C323.79 126.275 323.936 126.178 324.095 126.067C324.845 125.553 325.58 125.102 326.288 124.7C326.351 124.672 326.427 124.624 326.503 124.575C326.719 124.45 326.948 124.333 327.156 124.222C327.232 124.173 327.315 124.138 327.406 124.097C329.009 123.313 331.34 122.481 332.68 122.016C332.853 121.961 333.006 121.905 333.138 121.87C334.401 121.794 335.768 121.78 337.246 121.815C338.53 121.856 340.494 122.023 342.631 122.3C342.638 122.3 342.638 122.3 342.638 122.3C345.053 122.612 347.69 123.063 349.786 123.639C349.786 123.639 349.807 123.646 349.828 123.653C350.223 123.778 352.784 124.735 355.449 127.585C356.316 128.55 357.232 129.708 358.051 131.123Z" fill="#5295E7"/>
<path d="M354.255 173.404C354.783 175.131 354.914 176.019 354.914 176.726C354.914 177.218 354.276 177.739 354.019 177.877C353.096 178.411 351.292 178.779 349.092 179.049C349.994 178.938 351.556 177.51 351.556 176.213C351.556 175.304 350.383 169.187 350.702 165.24C351.028 161.301 351.667 155.024 350.445 149.995C349.217 144.974 348.065 138.364 348.065 138.364L354.956 142.525C354.956 142.525 355.844 143.767 356.823 145.279C356.663 146.992 356.504 148.719 356.372 150.377C356.282 151.41 352.055 166.197 354.255 173.404Z" fill="#03159D"/>
<path d="M323.943 102.075C323.943 102.075 324.539 109.275 326.927 109.76C329.314 110.246 328.731 107.187 328.731 107.187L328.398 103.768L323.943 102.075Z" fill="#002C54"/>
<path d="M334.956 128.182C330.279 127.627 332.027 123.084 332.666 122.037C332.839 121.981 333.637 121.739 333.7 121.697C333.707 121.69 333.714 121.69 333.714 121.69C333.866 121.565 333.984 121.378 334.075 121.149C334.533 119.949 334.324 117.563 334.304 117.411C334.304 117.404 334.304 117.404 334.304 117.404V116.974C334.38 116.689 334.456 116.419 334.519 116.162L336.975 114.227L342.18 110.135C342.18 110.135 340.799 116.974 341.909 121.288C341.993 121.614 342.166 122.071 342.596 122.321C342.596 122.328 342.603 122.321 342.603 122.321C342.742 122.411 342.916 122.474 343.124 122.508C344.415 123.105 342.638 129.091 334.956 128.182Z" fill="#E5918F"/>
<path d="M339.085 114.477C339.085 114.477 339.043 119.041 334.082 121.142C334.54 119.949 334.331 117.563 334.317 117.411L336.392 115.781L339.085 114.477Z" fill="#CC6362"/>
<path d="M325.081 103.102C325.081 103.102 326.163 118.049 330.202 119.318C330.202 119.318 335.345 119.803 339.036 114.837C340.098 113.409 341.444 113.083 341.882 111.356C342.596 108.547 343.603 103.372 342.319 100.251C340.494 95.8124 325.254 92.282 325.081 103.102Z" fill="#E5918F"/>
<path d="M342.388 97.7891C342.319 95.0772 339.571 94.0576 339.571 94.0576C336.837 92.7745 331.146 93.3294 325.282 94.6402C323.908 94.9454 322.18 94.1062 321.222 94.772C320.063 95.5766 321.215 99.2526 321.215 99.2526C323.478 106.098 331.798 103.872 334.304 103.026C334.9 104.787 334.824 107.236 336.302 108.505C337.149 109.226 338.613 109.247 340.112 108.997C340.292 109.344 340.986 109.656 341.125 110.135C341.597 111.737 341.528 114.241 341.514 116.169L342.222 115.822C342.312 115.295 349.612 98.0111 342.388 97.7891Z" fill="#002C54"/>
<path d="M327.621 110.87C327.19 110.87 326.76 110.69 326.392 110.357C325.962 109.962 325.664 109.393 325.553 108.755C325.442 108.117 325.539 107.478 325.816 106.965C326.101 106.438 326.545 106.098 327.065 106.008C328.12 105.828 329.168 106.764 329.397 108.103C329.508 108.741 329.411 109.379 329.134 109.892C328.849 110.419 328.405 110.759 327.884 110.849C327.794 110.863 327.711 110.87 327.621 110.87ZM327.329 106.341C327.26 106.341 327.19 106.348 327.121 106.362C326.705 106.431 326.351 106.709 326.122 107.139C325.879 107.583 325.802 108.144 325.9 108.706C325.997 109.268 326.254 109.767 326.628 110.107C326.989 110.44 327.419 110.579 327.829 110.509C328.245 110.44 328.599 110.163 328.828 109.733C329.071 109.289 329.147 108.727 329.05 108.165C328.877 107.111 328.127 106.341 327.329 106.341Z" fill="#151A40"/>
<path d="M332.499 109.962C332.069 109.962 331.639 109.781 331.271 109.448C330.841 109.053 330.542 108.484 330.431 107.846C330.202 106.514 330.882 105.28 331.944 105.099C332.992 104.919 334.047 105.855 334.276 107.194C334.387 107.832 334.29 108.463 334.012 108.984C333.728 109.511 333.283 109.851 332.763 109.941C332.673 109.955 332.589 109.962 332.499 109.962ZM332.208 105.425C332.138 105.425 332.069 105.432 332 105.446C331.132 105.592 330.577 106.646 330.771 107.791C330.868 108.352 331.125 108.852 331.5 109.192C331.861 109.525 332.291 109.663 332.7 109.594C333.117 109.525 333.471 109.247 333.7 108.817C333.943 108.373 334.019 107.811 333.922 107.25C333.755 106.195 333.006 105.425 332.208 105.425Z" fill="#151A40"/>
<path d="M329.369 108.234L329.078 108.047C329.12 107.971 329.397 107.61 330.577 107.714L330.549 108.061C329.585 107.971 329.369 108.228 329.369 108.234Z" fill="#151A40"/>
<path d="M334.172 107.693L334.116 107.347L338.287 106.681L338.342 107.028L334.172 107.693Z" fill="#151A40"/>
<path d="M338.62 112.146C341.493 113.249 342.388 106.181 339.661 105.869C337.593 105.634 337.51 108.519 337.51 108.519C337.51 108.519 336.982 111.515 338.62 112.146Z" fill="#E5918F"/>
<g opacity="0.5">
<path opacity="0.5" d="M339.571 106.931C339.113 107.458 338.918 108.033 338.863 108.644C338.821 108.949 338.856 109.261 338.863 109.587C338.898 109.906 338.932 110.239 338.96 110.586C338.849 110.447 338.773 110.294 338.675 110.149C338.599 109.989 338.537 109.83 338.481 109.663C338.384 109.323 338.328 108.97 338.363 108.602C338.398 108.241 338.509 107.874 338.724 107.576C338.925 107.263 339.231 107.021 339.571 106.931Z" fill="#CC6362"/>
<path opacity="0.5" d="M340.015 108.269C339.709 108.318 339.425 108.463 339.231 108.665C339.029 108.866 338.911 109.122 338.863 109.386L338.391 109.219C338.55 108.907 338.786 108.63 339.085 108.463C339.376 108.297 339.709 108.241 340.015 108.269Z" fill="#CC6362"/>
</g>
<path d="M366.233 161.238C366.233 161.238 366.233 161.238 366.233 161.245C364.97 162.709 360.182 163.777 357.878 161.751C357.156 161.106 356.337 159.407 355.532 157.299C353.492 151.91 351.556 143.843 351.556 143.843L362.277 138.371C362.277 138.371 363.658 144.551 364.845 150.425C364.845 150.425 364.859 150.488 364.88 150.592C365.268 152.471 365.629 154.323 365.907 155.911C365.921 155.953 365.921 155.995 365.928 156.036C366.205 157.923 366.386 159.9 366.233 161.238Z" fill="#E5918F"/>
<path d="M347.51 136.339C348.544 140.639 351.798 148.795 351.798 148.795C354.075 149.17 357.135 148.754 359.668 147.845C362.59 146.798 364.678 144.592 364.678 144.592C364.678 144.592 362.52 138.53 360.584 134.175C358.849 130.263 357.801 128.806 357.052 128.029C355.921 126.843 354.089 125.484 352.798 124.867L347.51 136.339Z" fill="#5295E7"/>
<path d="M361.063 139.148L354.775 136.436L349.821 123.674C349.821 123.674 350.73 123.951 351.923 124.43C351.923 124.43 351.923 124.43 351.93 124.43C351.951 124.444 352.007 124.457 352.09 124.492C352.118 124.506 352.152 124.513 352.18 124.534C353.249 125.033 357.392 127.474 360.265 136.345C360.286 136.422 360.313 136.498 360.334 136.567C360.639 137.587 360.862 138.412 360.986 138.835C361 138.877 361.007 138.919 361.021 138.96C361.035 139.03 361.042 139.092 361.063 139.148Z" fill="#5295E7"/>
<path d="M366.233 161.238C366.233 161.238 366.233 161.238 366.233 161.245C366.143 162.029 365.927 162.591 365.539 162.792C365.476 162.833 364.595 163.354 364.533 163.395C363.221 164.193 360.848 165.559 357.891 166.828C350.723 169.922 340.306 173.515 334.692 175.158C334.692 175.158 334.137 173.57 333.27 171.919C333.27 171.919 338.349 169.561 343.339 165.74C348.336 161.925 355.532 157.292 355.532 157.292L357.35 155.155C357.35 155.155 363.804 149.218 364.845 150.411C364.845 150.411 364.859 150.474 364.88 150.578C365.032 151.195 365.546 153.477 365.907 155.898C365.921 155.939 365.921 155.981 365.927 156.022C366.205 157.923 366.386 159.9 366.233 161.238Z" fill="#E5918F"/>
<path d="M334.012 171.559C334.012 171.559 332.749 172.322 331.465 172.051C330.75 171.899 330.466 171.614 329.939 171.517C329.411 171.427 328.009 171.254 327.315 170.914C326.621 170.574 326.351 170.532 326.378 171.233C326.406 171.926 327.773 172.53 328.141 172.724C328.509 172.918 328.981 173.535 329.029 173.612C329.078 173.688 326.746 174.909 326.122 174.659C326.122 174.659 325.934 175.221 326.038 175.533C326.143 175.845 326.621 175.956 326.663 176.116C326.698 176.275 326.552 176.594 326.656 176.844C326.76 177.094 327.19 177.094 327.364 177.503C327.537 177.912 327.35 177.912 327.475 178.342C327.6 178.765 328.141 178.841 328.245 179.056C328.349 179.271 328.294 179.528 328.523 179.681C328.752 179.833 330.848 179.16 331.611 178.827C332.374 178.501 334.422 175.554 336.684 174.555L334.012 171.559Z" fill="#E5918F"/>
<path d="M344.727 184.695H328.419V183.1H344.727C345.164 183.1 345.525 183.454 345.525 183.898C345.525 184.341 345.164 184.695 344.727 184.695Z" fill="#151A40"/>
<path d="M335.907 184.695H295.074C294.588 184.695 294.158 184.369 294.026 183.898L285.671 153.831C285.483 153.165 285.99 152.506 286.677 152.506H326.156C327.079 152.506 327.884 153.116 328.127 154.004L336.455 183.96C336.559 184.335 336.281 184.695 335.907 184.695Z" fill="#151A40"/>
<path d="M334.429 184.695H293.603C293.117 184.695 292.687 184.369 292.555 183.898L284.199 153.831C284.012 153.165 284.519 152.506 285.206 152.506H324.685C325.608 152.506 326.413 153.116 326.656 154.004L334.984 183.96C335.081 184.335 334.81 184.695 334.429 184.695Z" fill="#467CDB"/>
<path d="M172.61 165.268L177.343 160.42C177.343 160.42 177.509 158.256 177.766 157.805C178.023 157.347 178.689 155.662 179.022 155.475C179.355 155.287 180.014 155.475 180.014 155.475C180.014 155.475 180.674 155.253 180.965 155.253C181.257 155.253 181.812 155.523 181.812 155.523C181.812 155.523 182.52 155.475 182.811 155.475C183.102 155.475 183.2 155.558 183.2 155.558C183.2 155.558 184.338 154.247 184.893 153.803C185.448 153.359 186.288 152.548 186.538 152.555C186.774 152.555 186.878 152.971 186.704 153.415C186.531 153.858 185.781 154.566 185.781 154.566L183.63 157.833C183.63 157.833 183.998 157.687 184.192 157.562C184.386 157.437 185.705 156.21 185.781 156.161C185.858 156.113 186.447 155.717 186.794 156.113C187.141 156.508 184.539 159.615 184.123 160.038C183.706 160.454 181.319 161.668 181.319 161.668C181.319 161.668 178.793 166.204 178.55 166.496C178.3 166.794 172.61 165.268 172.61 165.268Z" fill="#E49191"/>
<path d="M177.058 142.9C177.058 142.9 174.414 158.193 171.93 158.547C171.93 158.547 162.006 158.949 159.792 146.909C157.877 136.47 165.566 134.244 169.168 135.042C172.762 135.846 177.835 136.366 177.058 142.9Z" fill="#E49191"/>
<path d="M168.286 156.106C168.286 156.106 166.898 157.978 166.406 162.514C166.406 162.514 162.27 163.104 158.46 161.141C158.46 161.141 160.514 154.739 160.764 147.79" fill="#E49191"/>
<path d="M165.49 132.489C160.063 133.689 160.5 137.067 160.5 137.067C157.96 137.698 157.412 138.745 157.433 143.427C157.454 148.116 159.147 153.741 160.084 154.198C161.021 154.656 166.323 154.677 166.767 154.517C167.211 154.358 169.064 150.058 168.633 149.302C168.203 148.546 168.654 145.57 169.889 145.459C171.125 145.348 170.882 147.262 170.882 147.262L171.895 147.041L172.679 145.119C179.848 145.542 181.701 137.379 181.701 137.379C179.98 136.255 170.917 131.289 165.49 132.489Z" fill="#002C54"/>
<path d="M105.268 236.027L110.75 236.818L108.932 243.22L102.991 241.722C102.991 241.722 100.576 238.448 104.227 236.027C104.407 235.916 104.983 235.965 105.268 236.027Z" fill="#E5918F"/>
<path d="M146.211 219.589L138.127 195.127C138.127 195.127 135.677 194.253 134.421 195.127C134.421 195.127 125.996 199.656 126.898 212.557C127.578 222.287 129.633 232.837 130.465 237.068L108.897 236.27C108.897 236.27 106.239 239.433 107.96 243.546C107.96 243.546 135.066 250.829 138.883 251.501C141.985 252.049 145.386 252.472 147.023 251.064C149.903 248.595 146.211 219.589 146.211 219.589Z" fill="black"/>
<path d="M130.812 236.027L136.295 236.818L134.476 243.22L128.536 241.722C128.536 241.722 126.121 238.448 129.771 236.027C129.945 235.916 130.521 235.965 130.812 236.027Z" fill="#E5918F"/>
<path d="M128.821 239.384C128.696 240.647 129.799 241.777 129.598 242.096C129.397 242.408 125.712 248.595 125.712 248.595C125.712 248.595 128.494 249.809 128.043 251.557H120.993C120.993 251.557 119.154 249.899 119.195 247.52C119.195 247.52 119.674 244.78 120.93 242.36C122.186 239.939 125.045 234.467 125.045 234.467C125.045 234.467 125.913 234.113 127.398 234.508C129.133 234.973 130.805 236.034 130.805 236.034C130.805 236.034 129.119 236.27 128.821 239.384Z" fill="#467CDB"/>
<path d="M185.289 245.932C183.547 239.44 167.176 211.731 161.631 204.247C150.25 199.309 138.127 195.12 138.127 195.12C133.109 196.32 130.639 206.418 133.484 213.153C135.434 217.772 147.814 229.397 155.399 236.242L134.358 236.215C134.358 236.215 131.881 239.918 134.123 243.435C134.123 243.435 169.112 251.383 172.18 251.834C175.247 252.285 182.138 251.834 182.138 251.834C182.138 251.834 186.753 251.397 185.289 245.932Z" fill="#002C54"/>
<path d="M103.283 239.384C103.158 240.647 104.261 241.777 104.06 242.096C103.859 242.408 100.174 248.595 100.174 248.595C100.174 248.595 102.957 249.809 102.505 251.557H95.4548C95.4548 251.557 93.6158 249.899 93.6574 247.52C93.6574 247.52 94.1363 244.78 95.3923 242.36C96.6484 239.939 99.5076 234.467 99.5076 234.467C99.5076 234.467 100.375 234.113 101.86 234.508C103.595 234.973 105.267 236.034 105.267 236.034C105.267 236.034 103.581 236.27 103.283 239.384Z" fill="#467CDB"/>
<path d="M211.631 160.565L200.348 180.402L192.263 172.349L185.573 182.302L187.516 183.232L186.815 183.814C186.815 183.814 202.409 191.402 204.282 189.731C206.149 188.059 214.858 162.82 214.858 162.82L211.631 160.565Z" fill="#E49191"/>
<path d="M193.706 173.612C193.706 173.612 191.576 182.594 187.315 186.852L176.413 182.705C176.413 182.705 171.354 191.208 166.406 197.728C164.504 200.245 163.873 203.79 161.638 204.254C161.499 204.206 161.368 204.164 161.229 204.129C155.17 202.312 146.232 204.24 138.855 201.501C130.708 198.47 132.29 196.764 132.29 196.764C132.29 196.764 137.231 187.865 140.035 178.439C141.284 174.271 142.152 170.407 142.728 167.39C143.762 162.05 148.043 157.874 153.442 157.146C153.505 157.139 153.56 157.125 153.623 157.118C159.799 156.335 175.969 158.242 179.112 159.587C182.256 160.933 193.706 173.612 193.706 173.612Z" fill="#467CDB"/>
<path d="M176.413 182.705C176.413 182.705 171.354 191.208 166.406 197.728C164.504 200.245 163.873 203.79 161.638 204.254C162.617 203.908 164.241 198.761 164.817 197.603C165.399 196.451 166.322 195.293 168.321 191.25C170.313 187.199 173.019 181.262 173.019 181.262L176.413 182.705Z" fill="#5996EF"/>
<path d="M155.399 236.242C157.238 235.923 159.112 235.986 160.951 236.229C161.874 236.36 162.783 236.541 163.678 236.797C164.574 237.033 165.441 237.394 166.274 237.803L163.553 237.359C162.651 237.22 161.756 237.075 160.854 236.957C159.043 236.7 157.238 236.506 155.399 236.242Z" fill="black"/>
<path d="M220.063 153.262C219.883 153.241 218.724 154.171 218.169 154.628L218.814 153.394C218.814 153.394 219.667 152.575 219.973 152.125C220.278 151.674 220.119 151.223 219.876 151.202C219.709 151.188 218.689 151.993 218.099 152.471L218.231 152.222C218.231 152.222 219.085 151.403 219.39 150.952C219.695 150.502 219.536 150.051 219.293 150.023C219.05 150.002 217.093 151.639 217.093 151.639L216.142 152.915L216.864 151.521C216.864 151.521 217.246 151.056 217.495 150.557C217.745 150.051 217.565 149.898 217.426 149.732C217.287 149.565 215.969 150.543 215.629 150.938C215.295 151.334 214.227 152.922 214.144 153.144L213.04 155.419C212.971 154.76 212.86 153.63 212.783 152.908C212.672 151.875 211.729 151.625 211.701 152.131C211.666 152.638 211.146 155.114 211.264 156.459C211.382 157.805 211.611 158.686 211.694 159.442C211.777 160.198 210.993 161.71 210.993 161.71C210.993 161.71 214.137 163.659 214.65 163.076C215.171 162.494 216.274 161.197 216.808 160.323C217.544 159.123 218.037 157.548 218.037 157.548L219.015 155.454C219.015 155.454 219.869 154.635 220.174 154.184C220.466 153.734 220.306 153.283 220.063 153.262Z" fill="#E49191"/>
<path d="M363.776 113.256C363.714 113.256 363.651 113.249 363.596 113.228C363.346 113.152 363.186 112.923 363.186 112.666V107.908C363.186 107.756 363.068 107.624 362.923 107.603C360.64 107.319 358.919 105.363 358.919 103.06V94.3628C358.919 91.8381 360.973 89.7782 363.506 89.7782H400.327C402.853 89.7782 404.915 91.8312 404.915 94.3628V103.06C404.915 105.585 402.86 107.645 400.327 107.645H368.273C368.176 107.645 368.079 107.693 368.023 107.777L364.269 113.02C364.144 113.166 363.964 113.256 363.776 113.256ZM363.492 90.4024C361.306 90.4024 359.529 92.178 359.529 94.3628V103.06C359.529 105.051 361.014 106.743 362.992 106.986C363.457 107.042 363.804 107.437 363.804 107.908V112.666L367.503 107.409C367.676 107.166 367.961 107.021 368.259 107.021H400.314C402.5 107.021 404.276 105.245 404.276 103.06V94.3628C404.276 92.178 402.5 90.4024 400.314 90.4024H363.492Z" fill="#151A40"/>
<path d="M367.739 100.411C366.788 100.411 366.018 99.641 366.018 98.6908C366.018 97.7406 366.788 96.9707 367.739 96.9707C368.69 96.9707 369.46 97.7406 369.46 98.6908C369.46 99.641 368.683 100.411 367.739 100.411ZM367.739 97.6018C367.135 97.6018 366.642 98.0943 366.642 98.6977C366.642 99.3011 367.135 99.7936 367.739 99.7936C368.343 99.7936 368.835 99.3011 368.835 98.6977C368.835 98.0943 368.343 97.6018 367.739 97.6018Z" fill="#151A40"/>
<path d="M374.824 100.411C373.874 100.411 373.103 99.641 373.103 98.6908C373.103 97.7406 373.874 96.9707 374.824 96.9707C375.775 96.9707 376.545 97.7406 376.545 98.6908C376.545 99.641 375.768 100.411 374.824 100.411ZM374.824 97.6018C374.221 97.6018 373.728 98.0943 373.728 98.6977C373.728 99.3011 374.221 99.7936 374.824 99.7936C375.428 99.7936 375.921 99.3011 375.921 98.6977C375.921 98.0943 375.428 97.6018 374.824 97.6018Z" fill="#151A40"/>
<path d="M381.91 100.411C380.959 100.411 380.189 99.641 380.189 98.6908C380.189 97.7406 380.959 96.9707 381.91 96.9707C382.86 96.9707 383.631 97.7406 383.631 98.6908C383.631 99.641 382.853 100.411 381.91 100.411ZM381.91 97.6018C381.306 97.6018 380.813 98.0943 380.813 98.6977C380.813 99.3011 381.306 99.7936 381.91 99.7936C382.513 99.7936 383.006 99.3011 383.006 98.6977C383.006 98.0943 382.513 97.6018 381.91 97.6018Z" fill="#151A40"/>
<path d="M388.995 100.411C388.044 100.411 387.274 99.641 387.274 98.6908C387.274 97.7406 388.044 96.9707 388.995 96.9707C389.946 96.9707 390.716 97.7406 390.716 98.6908C390.716 99.641 389.939 100.411 388.995 100.411ZM388.995 97.6018C388.391 97.6018 387.899 98.0943 387.899 98.6977C387.899 99.3011 388.391 99.7936 388.995 99.7936C389.599 99.7936 390.091 99.3011 390.091 98.6977C390.091 98.0943 389.599 97.6018 388.995 97.6018Z" fill="#151A40"/>
<path d="M396.08 100.411C395.13 100.411 394.359 99.641 394.359 98.6908C394.359 97.7406 395.13 96.9707 396.08 96.9707C397.031 96.9707 397.801 97.7406 397.801 98.6908C397.801 99.641 397.024 100.411 396.08 100.411ZM396.08 97.6018C395.477 97.6018 394.984 98.0943 394.984 98.6977C394.984 99.3011 395.477 99.7936 396.08 99.7936C396.684 99.7936 397.177 99.3011 397.177 98.6977C397.177 98.0943 396.684 97.6018 396.08 97.6018Z" fill="#151A40"/>
<path d="M145.878 151.375C145.691 151.375 145.511 151.285 145.4 151.126L141.645 145.882C141.59 145.799 141.493 145.75 141.395 145.75H109.341C106.815 145.75 104.754 143.697 104.754 141.166V132.468C104.754 129.944 106.808 127.884 109.341 127.884H146.163C148.689 127.884 150.743 129.937 150.743 132.468V141.166C150.743 143.469 149.022 145.424 146.739 145.709C146.586 145.73 146.468 145.861 146.468 146.014V150.772C146.468 151.029 146.302 151.258 146.059 151.334C146.003 151.369 145.941 151.375 145.878 151.375ZM109.341 128.522C107.155 128.522 105.379 130.297 105.379 132.482V141.18C105.379 143.365 107.155 145.14 109.341 145.14H141.395C141.694 145.14 141.978 145.286 142.152 145.529L145.906 150.772L145.858 146.028C145.858 145.563 146.205 145.168 146.669 145.105C148.64 144.856 150.132 143.17 150.132 141.173V132.475C150.132 130.29 148.356 128.515 146.17 128.515H109.341V128.522Z" fill="#151A40"/>
<path d="M141.923 138.53C140.979 138.53 140.202 137.76 140.202 136.81C140.202 135.86 140.972 135.09 141.923 135.09C142.873 135.09 143.644 135.86 143.644 136.81C143.644 137.76 142.866 138.53 141.923 138.53ZM141.923 135.714C141.319 135.714 140.826 136.207 140.826 136.81C140.826 137.414 141.319 137.906 141.923 137.906C142.526 137.906 143.019 137.414 143.019 136.81C143.019 136.207 142.526 135.714 141.923 135.714Z" fill="#151A40"/>
<path d="M134.837 138.53C133.894 138.53 133.116 137.76 133.116 136.81C133.116 135.86 133.887 135.09 134.837 135.09C135.788 135.09 136.559 135.86 136.559 136.81C136.559 137.76 135.781 138.53 134.837 138.53ZM134.837 135.714C134.234 135.714 133.741 136.207 133.741 136.81C133.741 137.414 134.234 137.906 134.837 137.906C135.441 137.906 135.934 137.414 135.934 136.81C135.934 136.207 135.441 135.714 134.837 135.714Z" fill="#151A40"/>
<path d="M127.752 138.53C126.808 138.53 126.031 137.76 126.031 136.81C126.031 135.86 126.801 135.09 127.752 135.09C128.703 135.09 129.473 135.86 129.473 136.81C129.473 137.76 128.696 138.53 127.752 138.53ZM127.752 135.714C127.148 135.714 126.656 136.207 126.656 136.81C126.656 137.414 127.148 137.906 127.752 137.906C128.356 137.906 128.849 137.414 128.849 136.81C128.849 136.207 128.356 135.714 127.752 135.714Z" fill="#151A40"/>
<path d="M120.667 138.53C119.723 138.53 118.946 137.76 118.946 136.81C118.946 135.86 119.716 135.09 120.667 135.09C121.617 135.09 122.388 135.86 122.388 136.81C122.388 137.76 121.617 138.53 120.667 138.53ZM120.667 135.714C120.063 135.714 119.57 136.207 119.57 136.81C119.57 137.414 120.063 137.906 120.667 137.906C121.27 137.906 121.763 137.414 121.763 136.81C121.763 136.207 121.27 135.714 120.667 135.714Z" fill="#151A40"/>
<path d="M113.581 138.53C112.637 138.53 111.86 137.76 111.86 136.81C111.86 135.86 112.631 135.09 113.581 135.09C114.532 135.09 115.302 135.86 115.302 136.81C115.302 137.76 114.532 138.53 113.581 138.53ZM113.581 135.714C112.978 135.714 112.485 136.207 112.485 136.81C112.485 137.414 112.978 137.906 113.581 137.906C114.185 137.906 114.678 137.414 114.678 136.81C114.678 136.207 114.185 135.714 113.581 135.714Z" fill="#151A40"/>
<path d="M331.729 70.0319H264.609C260.91 70.0319 257.905 67.0356 257.905 63.3318C257.905 59.635 260.903 56.6318 264.609 56.6318H331.729C335.428 56.6318 338.433 59.6281 338.433 63.3318C338.433 67.0356 335.435 70.0319 331.729 70.0319Z" fill="white"/>
<path d="M331.736 70.344H264.616C260.75 70.344 257.6 67.202 257.6 63.3318C257.6 59.4616 260.743 56.3197 264.616 56.3197H331.736C335.601 56.3197 338.752 59.4616 338.752 63.3318C338.752 67.202 335.601 70.344 331.736 70.344ZM264.616 56.9439C261.09 56.9439 258.224 59.8084 258.224 63.3318C258.224 66.8553 261.09 69.7198 264.616 69.7198H331.736C335.261 69.7198 338.127 66.8553 338.127 63.3318C338.127 59.8084 335.261 56.9439 331.736 56.9439H264.616Z" fill="#03159D"/>
<path d="M327.184 67.0148C324.9 67.0148 323.041 65.156 323.041 62.8741C323.041 60.5922 324.9 58.7334 327.184 58.7334C329.467 58.7334 331.326 60.5922 331.326 62.8741C331.326 65.156 329.467 67.0148 327.184 67.0148ZM327.184 59.8917C325.539 59.8917 324.199 61.2303 324.199 62.8741C324.199 64.5179 325.539 65.8565 327.184 65.8565C328.828 65.8565 330.168 64.5179 330.168 62.8741C330.168 61.2303 328.828 59.8917 327.184 59.8917Z" fill="#03159D"/>
<path d="M331.674 67.9372C331.528 67.9372 331.375 67.8817 331.264 67.7638L329.293 65.794C329.064 65.5652 329.064 65.1976 329.293 64.9756C329.522 64.7467 329.89 64.7467 330.112 64.9756L332.083 66.9454C332.312 67.1743 332.312 67.5419 332.083 67.7638C331.972 67.8817 331.819 67.9372 331.674 67.9372Z" fill="#03159D"/>
<path d="M230.063 252.216H213.179C210.223 252.216 207.829 249.823 207.829 246.868V230C207.829 227.046 210.223 224.653 213.179 224.653H230.063C233.02 224.653 235.414 227.046 235.414 230V246.875C235.414 249.823 233.013 252.216 230.063 252.216Z" fill="#151A40"/>
<path d="M225.032 252.216H208.148C205.192 252.216 202.797 249.823 202.797 246.868V230C202.797 227.046 205.192 224.653 208.148 224.653H225.032C227.988 224.653 230.382 227.046 230.382 230V246.875C230.382 249.823 227.988 252.216 225.032 252.216Z" fill="#03159D"/>
<path d="M213.332 233.232L221.25 237.803C221.736 238.087 221.736 238.788 221.25 239.072L213.332 243.643C212.846 243.927 212.235 243.574 212.235 243.012V233.877C212.235 233.302 212.846 232.948 213.332 233.232Z" fill="white"/>
<path d="M404.72 252.216H382.652C378.794 252.216 375.657 249.088 375.657 245.224V223.161C375.657 219.305 378.787 216.17 382.652 216.17H404.727C408.586 216.17 411.722 219.298 411.722 223.161V245.224C411.715 249.088 408.586 252.216 404.72 252.216Z" fill="#151A40"/>
<path d="M398.148 252.216H376.073C372.215 252.216 369.078 249.088 369.078 245.224V223.161C369.078 219.305 372.208 216.17 376.073 216.17H398.148C402.007 216.17 405.144 219.298 405.144 223.161V245.224C405.144 249.088 402.014 252.216 398.148 252.216Z" fill="#03159D"/>
<path d="M391.445 225.02C391.445 227.413 389.509 229.348 387.114 229.348C384.72 229.348 382.784 227.406 382.784 225.02C382.784 222.627 384.72 220.692 387.114 220.692C389.509 220.692 391.445 222.634 391.445 225.02Z" fill="white"/>
<path d="M396.143 239.683V246.077C396.143 246.653 395.678 247.125 395.095 247.125H379.127C378.551 247.125 378.079 246.653 378.079 246.077V239.683C378.079 234.696 382.125 230.659 387.107 230.659C392.104 230.659 396.143 234.696 396.143 239.683Z" fill="white"/>
<path d="M306.476 84.5624H292.298C291.708 84.5624 291.236 84.0839 291.236 83.4943C291.236 82.9048 291.715 82.4262 292.298 82.4262H306.476C307.066 82.4262 307.544 82.9048 307.544 83.4943C307.544 84.0839 307.066 84.5624 306.476 84.5624Z" fill="#5295E7"/>
<path d="M320.66 84.5624H310.403C309.814 84.5624 309.335 84.0839 309.335 83.4943C309.335 82.9048 309.814 82.4262 310.403 82.4262H320.66C321.25 82.4262 321.729 82.9048 321.729 83.4943C321.722 84.0839 321.25 84.5624 320.66 84.5624Z" fill="#5295E7"/>
<path d="M298.322 89.2442H292.298C291.708 89.2442 291.236 88.7656 291.236 88.176C291.236 87.5865 291.715 87.1079 292.298 87.1079H298.322C298.911 87.1079 299.39 87.5865 299.39 88.176C299.39 88.7656 298.911 89.2442 298.322 89.2442Z" fill="#5295E7"/>
<path d="M320.66 89.2442H301.902C301.313 89.2442 300.834 88.7656 300.834 88.176C300.834 87.5865 301.313 87.1079 301.902 87.1079H320.66C321.25 87.1079 321.729 87.5865 321.729 88.176C321.722 88.7656 321.25 89.2442 320.66 89.2442Z" fill="#5295E7"/>
<path d="M310.986 93.9258H292.298C291.708 93.9258 291.236 93.4473 291.236 92.8577C291.236 92.2682 291.715 91.7896 292.298 91.7896H310.986C311.576 91.7896 312.055 92.2682 312.055 92.8577C312.055 93.4473 311.576 93.9258 310.986 93.9258Z" fill="#5295E7"/>
<path d="M320.66 93.9258H314.637C314.047 93.9258 313.568 93.4473 313.568 92.8577C313.568 92.2682 314.047 91.7896 314.637 91.7896H320.66C321.25 91.7896 321.729 92.2682 321.729 92.8577C321.722 93.4473 321.25 93.9258 320.66 93.9258Z" fill="#5295E7"/>
<path d="M126.961 186.499H77.4674C76.0031 186.499 74.8164 185.313 74.8164 183.849V158.88C74.8164 157.417 76.0031 156.231 77.4674 156.231H126.961C128.425 156.231 129.612 157.417 129.612 158.88V183.849C129.612 185.313 128.425 186.499 126.961 186.499Z" fill="#03159D"/>
<path d="M127.28 160.628H77.1411C76.9677 160.628 76.8289 160.489 76.8289 160.316C76.8289 160.142 76.9677 160.004 77.1411 160.004H127.28C127.454 160.004 127.592 160.142 127.592 160.316C127.592 160.489 127.454 160.628 127.28 160.628Z" fill="white"/>
<path d="M125.962 158.845C126.299 158.845 126.572 158.572 126.572 158.235C126.572 157.898 126.299 157.625 125.962 157.625C125.624 157.625 125.351 157.898 125.351 158.235C125.351 158.572 125.624 158.845 125.962 158.845Z" fill="white"/>
<path d="M122.79 158.845C123.127 158.845 123.401 158.572 123.401 158.235C123.401 157.898 123.127 157.625 122.79 157.625C122.453 157.625 122.179 157.898 122.179 158.235C122.179 158.572 122.453 158.845 122.79 158.845Z" fill="white"/>
<path d="M119.626 158.845C119.963 158.845 120.236 158.572 120.236 158.235C120.236 157.898 119.963 157.625 119.626 157.625C119.288 157.625 119.015 157.898 119.015 158.235C119.015 158.572 119.288 158.845 119.626 158.845Z" fill="white"/>
<path d="M86.4888 164.387H77.9808C77.5159 164.387 77.1411 164.013 77.1411 163.548C77.1411 163.083 77.5159 162.709 77.9808 162.709H86.4888C86.9538 162.709 87.3285 163.083 87.3285 163.548C87.3285 164.013 86.9538 164.387 86.4888 164.387Z" fill="#6589D1"/>
<path d="M86.4888 168.264H77.9808C77.5159 168.264 77.1411 167.89 77.1411 167.425C77.1411 166.96 77.5159 166.586 77.9808 166.586H86.4888C86.9538 166.586 87.3285 166.96 87.3285 167.425C87.3285 167.89 86.9538 168.264 86.4888 168.264Z" fill="#6589D1"/>
<path d="M86.4888 172.134H77.9808C77.5159 172.134 77.1411 171.76 77.1411 171.295C77.1411 170.83 77.5159 170.456 77.9808 170.456H86.4888C86.9538 170.456 87.3285 170.83 87.3285 171.295C87.3285 171.76 86.9538 172.134 86.4888 172.134Z" fill="#6589D1"/>
<path d="M86.4888 176.005H77.9808C77.5159 176.005 77.1411 175.63 77.1411 175.165C77.1411 174.701 77.5159 174.326 77.9808 174.326H86.4888C86.9538 174.326 87.3285 174.701 87.3285 175.165C87.3285 175.63 86.9538 176.005 86.4888 176.005Z" fill="#6589D1"/>
<path d="M86.4888 179.882H77.9808C77.5159 179.882 77.1411 179.507 77.1411 179.043C77.1411 178.578 77.5159 178.203 77.9808 178.203H86.4888C86.9538 178.203 87.3285 178.578 87.3285 179.043C87.3285 179.507 86.9538 179.882 86.4888 179.882Z" fill="#6589D1"/>
<path d="M86.4888 183.752H77.9808C77.5159 183.752 77.1411 183.377 77.1411 182.913C77.1411 182.448 77.5159 182.074 77.9808 182.074H86.4888C86.9538 182.074 87.3285 182.448 87.3285 182.913C87.3285 183.377 86.9538 183.752 86.4888 183.752Z" fill="#6589D1"/>
<path d="M126.447 164.387H89.7851C89.3202 164.387 88.9454 164.013 88.9454 163.548C88.9454 163.083 89.3202 162.709 89.7851 162.709H126.447C126.912 162.709 127.287 163.083 127.287 163.548C127.28 164.013 126.905 164.387 126.447 164.387Z" fill="#3B5FB7"/>
<path d="M126.447 168.264H89.7851C89.3202 168.264 88.9454 167.89 88.9454 167.425C88.9454 166.96 89.3202 166.586 89.7851 166.586H126.447C126.912 166.586 127.287 166.96 127.287 167.425C127.28 167.89 126.905 168.264 126.447 168.264Z" fill="#3B5FB7"/>
<path d="M126.447 172.134H89.7851C89.3202 172.134 88.9454 171.76 88.9454 171.295C88.9454 170.83 89.3202 170.456 89.7851 170.456H126.447C126.912 170.456 127.287 170.83 127.287 171.295C127.28 171.76 126.905 172.134 126.447 172.134Z" fill="#3B5FB7"/>
<path d="M126.447 176.005H89.7851C89.3202 176.005 88.9454 175.63 88.9454 175.165C88.9454 174.701 89.3202 174.326 89.7851 174.326H126.447C126.912 174.326 127.287 174.701 127.287 175.165C127.28 175.63 126.905 176.005 126.447 176.005Z" fill="#3B5FB7"/>
<path d="M126.447 179.882H89.7851C89.3202 179.882 88.9454 179.507 88.9454 179.043C88.9454 178.578 89.3202 178.203 89.7851 178.203H126.447C126.912 178.203 127.287 178.578 127.287 179.043C127.28 179.507 126.905 179.882 126.447 179.882Z" fill="#3B5FB7"/>
<path d="M126.447 183.752H89.7851C89.3202 183.752 88.9454 183.377 88.9454 182.913C88.9454 182.448 89.3202 182.074 89.7851 182.074H126.447C126.912 182.074 127.287 182.448 127.287 182.913C127.28 183.377 126.905 183.752 126.447 183.752Z" fill="#3B5FB7"/>
<path d="M361.923 45.9229C349.335 45.9229 339.092 35.6855 339.092 23.1039C339.092 10.5223 349.335 0.285004 361.923 0.285004C374.512 0.285004 384.755 10.5223 384.755 23.1039C384.755 35.6855 374.512 45.9229 361.923 45.9229ZM361.923 0.832935C349.633 0.832935 339.64 10.8206 339.64 23.1039C339.64 35.3873 349.64 45.3749 361.923 45.3749C374.207 45.3749 384.207 35.3873 384.207 23.1039C384.207 10.8206 374.214 0.832935 361.923 0.832935Z" fill="#03159D"/>
<path d="M369.865 41.0411C379.77 36.6612 384.247 25.0855 379.865 15.1858C375.482 5.28623 363.9 0.811574 353.995 5.19144C344.09 9.5713 339.613 21.1471 343.995 31.0467C348.378 40.9463 359.96 45.421 369.865 41.0411Z" fill="#03159D"/>
<path d="M363.707 23.1039C363.707 24.0888 362.909 24.8864 361.924 24.8864C360.938 24.8864 360.14 24.0888 360.14 23.1039C360.14 22.119 360.938 21.3214 361.924 21.3214C362.909 21.3214 363.707 22.119 363.707 23.1039Z" fill="white"/>
<path d="M361.729 22.7502C361.458 22.9028 361.118 22.8057 360.973 22.5352L355.206 12.1384C355.053 11.8679 355.15 11.528 355.421 11.3824C355.692 11.2298 356.032 11.3269 356.177 11.5974L361.944 21.9942C362.097 22.2647 362 22.6046 361.729 22.7502Z" fill="white"/>
<path d="M362.208 23.3883C362.423 23.1733 362.777 23.1733 362.999 23.3883L367.989 28.3752C368.204 28.5902 368.204 28.9439 367.989 29.1659C367.774 29.3809 367.42 29.3809 367.198 29.1659L362.208 24.179C361.993 23.957 361.993 23.6033 362.208 23.3883Z" fill="white"/>
<path d="M362.048 8.10863C361.667 8.10863 361.354 7.79652 361.354 7.41505V5.1609C361.354 4.77943 361.667 4.46732 362.048 4.46732C362.43 4.46732 362.742 4.77943 362.742 5.1609V7.41505C362.742 7.79652 362.43 8.10863 362.048 8.10863Z" fill="white"/>
<path d="M379.876 23.9154H377.621C377.239 23.9154 376.927 23.6033 376.927 23.2218C376.927 22.8404 377.239 22.5283 377.621 22.5283H379.876C380.258 22.5283 380.57 22.8404 380.57 23.2218C380.57 23.6033 380.258 23.9154 379.876 23.9154Z" fill="white"/>
<path d="M361.805 41.7405C361.424 41.7405 361.111 41.4284 361.111 41.047V38.7928C361.111 38.4113 361.424 38.0992 361.805 38.0992C362.187 38.0992 362.499 38.4113 362.499 38.7928V41.047C362.499 41.4284 362.187 41.7405 361.805 41.7405Z" fill="white"/>
<path d="M346.226 23.6796H343.971C343.589 23.6796 343.277 23.3675 343.277 22.986C343.277 22.6045 343.589 22.2924 343.971 22.2924H346.226C346.608 22.2924 346.92 22.6045 346.92 22.986C346.92 23.3675 346.608 23.6796 346.226 23.6796Z" fill="white"/>
<g opacity="0.5">
<path opacity="0.5" d="M354.179 9.801C354.061 9.801 353.943 9.73857 353.88 9.6276L352.756 7.67863C352.659 7.51217 352.715 7.30409 352.881 7.20699C353.048 7.10989 353.256 7.16538 353.353 7.33184L354.477 9.28081C354.574 9.44727 354.519 9.65534 354.352 9.75245C354.297 9.78713 354.241 9.801 354.179 9.801Z" fill="#5295E7"/>
<path opacity="0.5" d="M375.581 15.7103C375.463 15.7103 375.345 15.6479 375.282 15.5369C375.185 15.3705 375.241 15.1624 375.407 15.0653L377.357 13.9417C377.524 13.8446 377.732 13.9001 377.829 14.0665C377.926 14.233 377.871 14.4411 377.704 14.5382L375.754 15.6618C375.699 15.6965 375.636 15.7103 375.581 15.7103Z" fill="#5295E7"/>
<path opacity="0.5" d="M370.799 39.0494C370.681 39.0494 370.563 38.987 370.501 38.876L369.377 36.9271C369.28 36.7606 369.335 36.5525 369.502 36.4554C369.668 36.3583 369.876 36.4138 369.973 36.5803L371.098 38.5293C371.195 38.6957 371.139 38.9038 370.973 39.0009C370.917 39.0356 370.855 39.0494 370.799 39.0494Z" fill="#5295E7"/>
<path opacity="0.5" d="M346.316 32.3217C346.198 32.3217 346.08 32.2592 346.018 32.1483C345.921 31.9818 345.976 31.7737 346.143 31.6766L348.093 30.553C348.259 30.4559 348.467 30.5114 348.565 30.6779C348.662 30.8443 348.606 31.0524 348.44 31.1495L346.49 32.2731C346.434 32.3009 346.379 32.3217 346.316 32.3217Z" fill="#5295E7"/>
</g>
<g opacity="0.5">
<path opacity="0.5" d="M348.391 15.5023C348.336 15.5023 348.273 15.4884 348.218 15.4537L346.268 14.3301C346.101 14.233 346.046 14.0249 346.143 13.8585C346.24 13.692 346.448 13.6365 346.615 13.7336L348.565 14.8572C348.731 14.9543 348.787 15.1624 348.69 15.3289C348.627 15.4399 348.509 15.5023 348.391 15.5023Z" fill="#5295E7"/>
<path opacity="0.5" d="M369.876 9.92584C369.821 9.92584 369.758 9.91197 369.703 9.87729C369.536 9.78019 369.481 9.57212 369.578 9.40566L370.702 7.45668C370.799 7.29022 371.007 7.23474 371.174 7.33184C371.341 7.42894 371.396 7.63702 371.299 7.80348L370.175 9.75245C370.112 9.86342 369.994 9.92584 369.876 9.92584Z" fill="#5295E7"/>
<path opacity="0.5" d="M377.413 32.5228C377.357 32.5228 377.295 32.5089 377.239 32.4743L375.289 31.3507C375.123 31.2536 375.067 31.0455 375.164 30.879C375.261 30.7126 375.477 30.6571 375.636 30.7542L377.586 31.8778C377.753 31.9749 377.808 32.183 377.711 32.3494C377.649 32.4673 377.531 32.5228 377.413 32.5228Z" fill="#5295E7"/>
<path opacity="0.5" d="M352.846 38.9315C352.791 38.9315 352.728 38.9177 352.673 38.883C352.506 38.7859 352.451 38.5778 352.548 38.4114L353.672 36.4624C353.769 36.2959 353.978 36.2404 354.144 36.3375C354.311 36.4346 354.366 36.6427 354.269 36.8092L353.145 38.7582C353.082 38.8691 352.964 38.9315 352.846 38.9315Z" fill="#5295E7"/>
</g>
<path d="M93.9072 136.56H69.1327C65.4686 136.56 62.4915 133.592 62.4915 129.923V105.162C62.4915 101.5 65.4616 98.5243 69.1327 98.5243H93.9072C97.5714 98.5243 100.548 101.493 100.548 105.162V129.923C100.548 133.592 97.5783 136.56 93.9072 136.56Z" fill="#03159D"/>
<path d="M92.2834 133.266H64.8718C61.9363 133.266 59.5491 130.887 59.5491 127.946V100.55C59.5491 97.6157 61.9294 95.2298 64.8718 95.2298H92.2834C95.2188 95.2298 97.6061 97.6088 97.6061 100.55V127.946C97.5991 130.887 95.2188 133.266 92.2834 133.266Z" fill="#5295E7"/>
<path d="M92.2834 133.613H64.8718C61.749 133.613 59.2021 131.074 59.2021 127.946V100.55C59.2021 97.4284 61.7421 94.883 64.8718 94.883H92.2834C95.4063 94.883 97.9531 97.4215 97.9531 100.55V127.946C97.9462 131.074 95.4063 133.613 92.2834 133.613ZM64.8718 95.5835C62.1307 95.5835 59.8961 97.8099 59.8961 100.556V127.953C59.8961 130.693 62.1237 132.926 64.8718 132.926H92.2834C95.0246 132.926 97.2592 130.7 97.2592 127.953V100.556C97.2592 97.8168 95.0315 95.5835 92.2834 95.5835H64.8718Z" fill="#151A40"/>
<path d="M85.1635 109.899H84.9622V107.721C84.9622 104.142 82.0545 101.236 78.4736 101.236C74.8928 101.236 71.9851 104.142 71.9851 107.721V109.899H71.9434C70.9372 109.899 70.1252 110.711 70.1252 111.716V119.928C70.1252 120.934 70.9372 121.745 71.9434 121.745H85.1635C86.1697 121.745 86.9816 120.934 86.9816 119.928V111.716C86.9886 110.711 86.1697 109.899 85.1635 109.899ZM73.6367 107.721C73.6367 105.051 75.8088 102.88 78.4806 102.88C81.1523 102.88 83.3244 105.051 83.3244 107.721V109.899H73.6367V107.721Z" fill="white"/>
<path d="M80.6943 114.116C80.6943 112.805 79.5006 111.772 78.1405 112.042C77.3424 112.202 76.6762 112.861 76.5097 113.658C76.3084 114.622 76.7664 115.503 77.509 115.94C77.6616 116.03 77.7449 116.197 77.7033 116.363L77.3355 117.723C77.1134 118.527 77.7241 119.325 78.5638 119.325C79.4035 119.325 80.0072 118.527 79.7921 117.723L79.4312 116.377C79.3827 116.204 79.4729 116.037 79.6256 115.947C80.2571 115.593 80.6943 114.907 80.6943 114.116Z" fill="#7E89FD"/>
<path d="M86.2043 124.624H70.9093C70.4791 124.624 70.1321 124.277 70.1321 123.847C70.1321 123.417 70.4791 123.07 70.9093 123.07H86.2043C86.6346 123.07 86.9815 123.417 86.9815 123.847C86.9885 124.277 86.6346 124.624 86.2043 124.624Z" fill="white"/>
<path d="M86.2043 127.273H70.9093C70.4791 127.273 70.1321 126.927 70.1321 126.497C70.1321 126.067 70.4791 125.72 70.9093 125.72H86.2043C86.6346 125.72 86.9815 126.067 86.9815 126.497C86.9885 126.92 86.6346 127.273 86.2043 127.273Z" fill="white"/>
<path d="M393.644 181.269H379.064C376.906 181.269 375.157 179.521 375.157 177.364V162.792C375.157 160.635 376.906 158.887 379.064 158.887H393.644C395.803 158.887 397.551 160.635 397.551 162.792V177.364C397.551 179.521 395.803 181.269 393.644 181.269Z" fill="#03159D"/>
<path d="M392.687 179.327H376.545C374.817 179.327 373.415 177.926 373.415 176.199V160.073C373.415 158.346 374.817 156.945 376.545 156.945H392.68C394.408 156.945 395.81 158.346 395.81 160.073V176.199C395.817 177.926 394.415 179.327 392.687 179.327Z" fill="#5295E7"/>
<path d="M392.687 179.674H376.545C374.63 179.674 373.068 178.113 373.068 176.199V160.073C373.068 158.159 374.63 156.598 376.545 156.598H392.68C394.595 156.598 396.157 158.159 396.157 160.073V176.199C396.164 178.113 394.602 179.674 392.687 179.674ZM376.545 157.285C375.012 157.285 373.762 158.533 373.762 160.066V176.192C373.762 177.725 375.012 178.973 376.545 178.973H392.68C394.214 178.973 395.463 177.725 395.463 176.192V160.066C395.463 158.533 394.214 157.285 392.68 157.285H376.545Z" fill="#151A40"/>
<path d="M380.091 174.819C380.029 174.819 379.966 174.812 379.904 174.791C379.536 174.687 379.321 174.305 379.425 173.938L382.812 161.953C382.916 161.585 383.304 161.37 383.665 161.474C384.033 161.578 384.248 161.96 384.144 162.327L380.758 174.312C380.674 174.617 380.39 174.819 380.091 174.819Z" fill="#151A40"/>
<path d="M385.754 174.819C385.692 174.819 385.629 174.812 385.567 174.791C385.199 174.687 384.984 174.305 385.088 173.938L388.475 161.953C388.579 161.585 388.967 161.37 389.328 161.474C389.696 161.578 389.911 161.96 389.807 162.327L386.42 174.312C386.337 174.617 386.06 174.819 385.754 174.819Z" fill="#151A40"/>
<path d="M390.612 166.107H378.62C378.239 166.107 377.926 165.795 377.926 165.414C377.926 165.032 378.239 164.72 378.62 164.72H390.612C390.994 164.72 391.306 165.032 391.306 165.414C391.306 165.802 390.994 166.107 390.612 166.107Z" fill="#151A40"/>
<path d="M390.612 171.586H378.62C378.239 171.586 377.926 171.274 377.926 170.893C377.926 170.511 378.239 170.199 378.62 170.199H390.612C390.994 170.199 391.306 170.511 391.306 170.893C391.306 171.274 390.994 171.586 390.612 171.586Z" fill="#151A40"/>
<path d="M123.206 110.149H114.532C114.004 110.149 113.581 109.726 113.581 109.199C113.581 108.671 114.004 108.248 114.532 108.248H123.206C123.734 108.248 124.157 108.671 124.157 109.199C124.157 109.719 123.734 110.149 123.206 110.149Z" fill="#5295E7"/>
<path d="M131.943 114.366H114.532C114.004 114.366 113.581 113.943 113.581 113.416C113.581 112.888 114.004 112.465 114.532 112.465H131.943C132.471 112.465 132.894 112.888 132.894 113.416C132.894 113.943 132.471 114.366 131.943 114.366Z" fill="#5295E7"/>
<path d="M116.586 118.583H114.532C114.004 118.583 113.581 118.16 113.581 117.633C113.581 117.105 114.004 116.682 114.532 116.682H116.586C117.113 116.682 117.537 117.105 117.537 117.633C117.544 118.16 117.113 118.583 116.586 118.583Z" fill="#5295E7"/>
<path d="M131.944 118.583H119.82C119.293 118.583 118.869 118.16 118.869 117.633C118.869 117.105 119.293 116.682 119.82 116.682H131.944C132.471 116.682 132.894 117.105 132.894 117.633C132.894 118.16 132.471 118.583 131.944 118.583Z" fill="#5295E7"/>
<path d="M131.943 110.149H126.683C126.156 110.149 125.732 109.726 125.732 109.199C125.732 108.671 126.156 108.248 126.683 108.248H131.943C132.471 108.248 132.894 108.671 132.894 109.199C132.894 109.719 132.471 110.149 131.943 110.149Z" fill="#5295E7"/>
<path d="M83.033 239.794C81.9018 239.794 80.847 240.106 79.9379 240.64C79.577 237.401 76.8289 234.89 73.491 234.89C69.9101 234.89 67.0024 237.789 67.0024 241.375C67.0024 241.618 67.0163 241.854 67.044 242.082C66.7456 242.027 66.4403 241.999 66.128 241.999C63.3938 241.999 61.1731 244.219 61.1731 246.951C61.1731 249.684 63.3938 251.904 66.128 251.904H83.026C86.3709 251.904 89.0843 249.192 89.0843 245.849C89.0913 242.505 86.3779 239.794 83.033 239.794Z" fill="#5295E7"/>
<path d="M40.0486 213.805C39.8821 212.896 39.9098 211.974 40.1319 211.086C40.8952 208.104 41.7696 202.486 39.8265 196.424C36.5857 186.304 23.449 177.35 23.449 177.35C23.449 177.35 27.016 192.276 29.9445 198.636C32.0888 203.29 35.8432 208.589 37.932 211.377C38.508 212.154 38.9036 213.042 39.0771 213.992C41.2006 225.742 40.8952 234.834 40.8883 234.973L41.8737 235.015C41.8807 234.862 42.193 225.672 40.0486 213.805Z" fill="#5295E7"/>
<path d="M50.5207 204.289C53.13 196.042 54.3444 186.325 54.3444 186.325C54.3444 186.325 42.5679 196.042 41.5963 203.554C41.0064 208.159 41.7421 211.849 42.4013 214.027C42.6789 214.949 42.783 215.913 42.6789 216.871C41.4853 227.933 42.4221 236.409 42.436 236.541L43.3243 236.437C43.3104 236.312 42.443 228.426 43.4631 217.973C43.6019 216.545 44.1779 215.192 45.087 214.069C46.7733 212.002 49.1883 208.52 50.5207 204.289Z" fill="#03159D"/>
<path d="M62.4985 185.944C62.4985 185.944 49.8059 190.653 46.4887 201.008C44.4693 207.313 45.42 213.139 46.2111 216.156C46.4332 217.002 46.4193 217.89 46.2111 218.736C43.241 230.659 43.1924 242.998 43.1924 243.157H44.2056C44.2056 242.998 44.2541 230.95 47.1202 219.263C47.4047 218.105 47.9113 217.009 48.6261 216.052C50.7913 213.139 54.4762 207.896 56.6067 203.269C59.6046 196.764 62.4985 185.944 62.4985 185.944Z" fill="#5295E7"/>
<path d="M40.1043 229.653C39.792 225.318 38.6053 221.414 37.1757 218.14C36.8912 217.481 36.7871 216.767 36.8773 216.059C37.0578 214.693 37.1272 212.563 36.5789 209.865C35.5519 204.781 28.7996 193.802 19.0286 193.157C19.0286 193.157 22.4012 198.574 24.1361 203.11C26.3291 208.846 29.4658 214.845 34.6636 217.148C35.5796 217.55 36.2944 218.313 36.6761 219.236C37.9252 222.274 38.9315 225.818 39.216 229.723L40.1043 229.653Z" fill="#03159D"/>
<path d="M33.4909 251.897H49.6186L53.8032 226.338C53.9906 225.207 53.1162 224.181 51.9712 224.181H31.1453C30.0002 224.181 29.1258 225.207 29.3132 226.338L33.4909 251.897Z" fill="#5295E7"/>
<path d="M451.618 252.285H0.38862C0.173491 252.285 0 252.112 0 251.897C0 251.682 0.173491 251.508 0.38862 251.508H451.618C451.833 251.508 452.007 251.682 452.007 251.897C452.007 252.112 451.827 252.285 451.618 252.285Z" fill="#5295E7"/>
</g>
<defs>
<clipPath id="clip0">
<rect width="452" height="252" fill="white" transform="translate(0 0.285004)"/>
</clipPath>
</defs>
</svg>
