<svg width="218" height="72" viewBox="0 0 218 72" fill="none" xmlns="http://www.w3.org/2000/svg">
<path d="M31.5733 54.0605C28.8373 54.0605 26.4613 53.4845 24.4453 52.3325C22.4773 51.1325 20.9413 49.5245 19.8373 47.5085C18.7813 45.4445 18.2533 43.1405 18.2533 40.5965V9.78049H2.91724V3.66048H40.5013V9.78049H25.1653V41.4605C25.1653 43.3325 25.7413 44.8925 26.8933 46.1405C28.0933 47.3405 29.6773 47.9405 31.6453 47.9405H34.9573V54.0605H31.5733ZM37.1685 54.0605V27.7805C37.1685 24.5165 38.0805 21.9725 39.9045 20.1485C41.7765 18.2765 44.3445 17.3405 47.6085 17.3405H55.1685V23.0285H48.8325C47.2005 23.0285 45.9525 23.5085 45.0885 24.4685C44.2245 25.3805 43.7925 26.6285 43.7925 28.2125V54.0605H37.1685ZM76.5547 54.9245C72.9547 54.9245 69.8587 54.0845 67.2667 52.4045C64.7227 50.6765 62.7547 48.3725 61.3627 45.4925C59.9707 42.5645 59.2747 39.3005 59.2747 35.7005C59.2747 32.1005 60.0427 28.8605 61.5787 25.9805C63.1147 23.0525 65.3227 20.7485 68.2027 19.0685C71.0827 17.3405 74.5387 16.4765 78.5707 16.4765C82.4107 16.4765 85.7227 17.3165 88.5067 18.9965C91.3387 20.6765 93.4987 22.9565 94.9867 25.8365C96.5227 28.7165 97.2907 31.9325 97.2907 35.4845V54.0605H90.5947V46.5725H90.4507C89.7307 47.9165 88.7467 49.2365 87.4987 50.5325C86.2507 51.8285 84.7147 52.8845 82.8907 53.7005C81.1147 54.5165 79.0027 54.9245 76.5547 54.9245ZM78.2827 49.2365C80.6827 49.2365 82.7947 48.6365 84.6187 47.4365C86.4907 46.2365 87.9307 44.6045 88.9387 42.5405C89.9947 40.4765 90.5227 38.1485 90.5227 35.5565C90.5227 33.0125 90.0187 30.7325 89.0107 28.7165C88.0507 26.7005 86.6587 25.1165 84.8347 23.9645C83.0107 22.7645 80.8747 22.1645 78.4267 22.1645C75.8347 22.1645 73.6027 22.7645 71.7307 23.9645C69.9067 25.1645 68.4907 26.7965 67.4827 28.8605C66.5227 30.9245 66.0427 33.2285 66.0427 35.7725C66.0427 38.2685 66.5227 40.5485 67.4827 42.6125C68.4427 44.6285 69.8347 46.2365 71.6587 47.4365C73.4827 48.6365 75.6907 49.2365 78.2827 49.2365ZM120.435 54.9245C118.803 54.9245 117.315 54.4685 115.971 53.5565C114.675 52.5965 113.715 51.2525 113.091 49.5245L101.139 17.3405H108.411L119.067 47.0765C119.403 47.9405 119.883 48.3725 120.507 48.3725C121.083 48.3725 121.563 47.9405 121.947 47.0765L132.675 17.3405H139.803L127.851 49.5245C127.179 51.2525 126.195 52.5965 124.899 53.5565C123.603 54.4685 122.115 54.9245 120.435 54.9245ZM163.751 54.0605C159.671 54.0605 156.071 53.3165 152.951 51.8285C149.879 50.2925 147.455 48.1565 145.679 45.4205C143.951 42.6365 143.087 39.3965 143.087 35.7005C143.087 32.0525 143.831 28.7885 145.319 25.9085C146.807 22.9805 148.871 20.6765 151.511 18.9965C154.151 17.3165 157.223 16.4765 160.727 16.4765C164.519 16.4765 167.663 17.2925 170.159 18.9245C172.703 20.5565 174.599 22.7645 175.847 25.5485C177.095 28.2845 177.719 31.3565 177.719 34.7645C177.719 35.9165 177.647 36.9725 177.503 37.9325H150.143C150.383 40.1885 151.127 42.1085 152.375 43.6925C153.623 45.2285 155.207 46.4045 157.127 47.2205C159.095 47.9885 161.255 48.3725 163.607 48.3725H173.183V54.0605H163.751ZM150.071 33.2525H171.023C171.023 31.6685 170.711 30.0125 170.087 28.2845C169.463 26.5565 168.407 25.0925 166.919 23.8925C165.431 22.6445 163.367 22.0205 160.727 22.0205C158.519 22.0205 156.623 22.5965 155.039 23.7485C153.503 24.8525 152.303 26.2685 151.439 27.9965C150.623 29.6765 150.167 31.4285 150.071 33.2525ZM186.166 54.0605V1.50049H192.79V54.0605H186.166ZM204.114 38.1485V3.66048H210.738V38.1485H204.114ZM207.426 54.7805C206.13 54.7805 205.002 54.3245 204.042 53.4125C203.13 52.4525 202.674 51.3245 202.674 50.0285C202.674 48.7325 203.13 47.6285 204.042 46.7165C205.002 45.7565 206.13 45.2765 207.426 45.2765C208.722 45.2765 209.826 45.7565 210.738 46.7165C211.698 47.6285 212.178 48.7325 212.178 50.0285C212.178 51.3245 211.698 52.4525 210.738 53.4125C209.826 54.3245 208.722 54.7805 207.426 54.7805Z" fill="#339FDC"/>
<path d="M1.26123 67.0925H216.786V70.8365H1.26123V67.0925Z" fill="#339FDC"/>
</svg>
